<svg width="1440" height="540" viewBox="0 0 1440 540" fill="none" xmlns="http://www.w3.org/2000/svg">
<g clip-path="url(#clip0_1_4)">
<path d="M708.745 90.7164L422.686 127.235L708.394 88.0353C708.752 87.9875 709.114 88.084 709.401 88.3033C709.688 88.5226 709.876 88.847 709.923 89.2049C709.971 89.5628 709.875 89.925 709.655 90.2118C709.436 90.4987 709.112 90.6866 708.754 90.7344L708.745 90.7164Z" fill="#EDEDED"/>
<path d="M709.492 96.1055L421.751 127.361L709.186 93.4244C709.363 93.4038 709.542 93.4182 709.714 93.4669C709.886 93.5156 710.046 93.5977 710.186 93.7084C710.326 93.8191 710.443 93.9562 710.53 94.1121C710.617 94.2679 710.672 94.4393 710.693 94.6165C710.713 94.7938 710.699 94.9733 710.65 95.145C710.601 95.3166 710.519 95.477 710.409 95.6169C710.298 95.7569 710.161 95.8736 710.005 95.9605C709.849 96.0475 709.678 96.1028 709.501 96.1235L709.492 96.1055Z" fill="#EDEDED"/>
<path d="M1336.88 539.818H57.8954V244.115L160.074 304.691H1336.88V539.818Z" fill="#F1F1F1"/>
<path d="M48.8535 252.05L187.074 188.316L363.144 65.7769L623.058 231.528C630.3 236.152 638.047 241.775 645.298 246.4C631.371 257.376 616.949 267.354 603.013 278.339L487.177 267.426L459.943 271.51C490.919 290.602 473.357 371.134 504.334 390.216C473.744 381.939 449.794 402.704 433.744 404.791C406.213 408.39 395.453 400.446 371.071 396.991C345.978 393.392 346.572 382.884 323.531 378.952C291.502 373.473 279.302 323.891 239.967 328.119C213.471 330.971 168.198 371.008 153.443 349.478C131.203 317.017 48.8535 252.05 48.8535 252.05Z" fill="#F6F6F6"/>
<path d="M963.188 344.179C986.142 322.142 1009.09 300.121 1032.04 278.114L968.802 244.87L912.202 215.099L972.482 171.698L1026.13 219.724L1135.59 171.698C1166.18 196.943 1196.77 222.183 1227.36 247.416L963.188 344.179Z" fill="#CEE7E0"/>
<path d="M125.4 468.157C116.511 461.859 119.21 454.032 130.996 452.16C154.694 448.391 180.479 443.784 210.052 442.507C289.531 439.052 377.765 439.151 428.858 450.271C440.914 452.898 450.379 473.141 447.149 478.872C442.983 486.25 436.632 484.63 408.696 485.494C394.346 485.935 374.688 494.014 347.859 493.465C321.632 492.935 308.002 489.345 259.059 483.425C247.434 482.021 218.824 481.005 194.685 481.517C182.485 481.778 171.779 482.66 162.917 483.695C154.541 484.675 144.617 482.381 138.499 478.045C133.839 474.743 130.069 471.441 125.4 468.157Z" fill="white"/>
<path d="M362.317 65.7769C354.777 83.5099 354.408 84.5265 346.86 102.269L326.167 109.178L326.023 139.453L240.552 166.273L242.018 220.534L155 241.119L48.0258 252.05L205.176 171.689L362.317 65.7769Z" fill="#CEE7E0"/>
<path d="M588.644 289.378C611.776 307.237 631.02 311.934 644.318 312.914C660.512 314.102 670.274 309.963 692.172 314.966C703.868 317.665 705.533 319.833 720.495 323.144C738.489 327.139 745.146 325.987 757.607 328.263C768.404 330.243 783.698 334.831 801.557 346.689C821.741 330.65 841.924 314.618 862.107 298.591L850.285 323.495H840.046L837.725 348.048L883.214 318.493C896.556 310.647 908.333 301.326 921.676 293.481L910.34 323.333L884.249 339.527L879.129 380.446H925.392L963.179 344.179C986.301 322.334 1008.93 299.959 1032.04 278.114L912.202 215.135L775.196 143.052C722.042 171.47 668.915 199.889 615.815 228.307L645.298 246.4L588.644 289.378Z" fill="#F6F6F6"/>
<path d="M948.037 336.477L921.676 293.472L917.771 303.755L948.037 336.477Z" fill="white"/>
<path d="M876.853 322.613L862.071 298.501L857.573 308.146L874.55 324.107L876.853 322.613Z" fill="white"/>
<path d="M775.187 143.052L698.956 224.978L729.654 232.59L598.19 296.171L588.653 289.378L645.334 246.4L615.851 228.307L775.187 143.052Z" fill="#CEE7E0"/>
<path d="M773.262 293.472L729.663 232.581L719.343 237.574L734.755 247.021L731.795 263.026L773.262 293.472Z" fill="white"/>
<path d="M1362.14 281.686L1266.87 248.316L1135.57 171.716L1118.48 204.438L1107.97 205.005L1097.74 237.736L1080.23 235.388L1094.69 267.777L1128.22 342.685L1101.02 330.27L877.483 356.28C877.483 356.28 883.646 380.428 879.192 394.76C876.961 401.957 851.617 423.838 845.58 431.386C843.605 433.868 842.15 436.722 841.302 439.778C840.453 442.834 840.228 446.029 840.64 449.173C842.62 464.54 854.064 469.012 875.899 470.766L906.021 470.172C912.319 468.535 937.969 477.37 944.492 477.748L1066.52 476.929C1072.46 479.016 1088.11 470.451 1094.27 470.559C1110.07 470.847 1115.47 463.596 1125.48 451.441C1133.65 441.544 1145.88 430.901 1159.66 427.302C1185.66 420.5 1236.52 418.044 1254.53 398.206C1276.08 374.436 1362.14 281.686 1362.14 281.686Z" fill="#F6F6F6"/>
<path d="M972.464 170.555L966.625 210.619L983.944 238.213L1026.18 219.787L972.464 170.555Z" fill="#F6F6F6"/>
<path d="M662.554 277.214H651.452V347.427H662.554V277.214Z" fill="#DADADA"/>
<path d="M840.136 191.716H814.801V347.427H840.136V191.716Z" fill="#DADADA"/>
<path d="M518 223.835H503.308V346.788H518V223.835Z" fill="#DADADA"/>
<path d="M568.779 269.234H526.889V347.427H568.779V269.234Z" fill="#DADADA"/>
<path d="M651.398 253.624H612.819V347.427H651.398V253.624Z" fill="#DADADA"/>
<path d="M694.026 215.378H673.423V347.427H694.026V215.378Z" fill="#DADADA"/>
<path d="M800.91 274.992H761.251V344.692H800.91V274.992Z" fill="#DADADA"/>
<path d="M874.595 231.231H844.554V347.427H874.595V231.231Z" fill="#DADADA"/>
<path d="M936.323 285.159H912.733V347.427H936.323V285.159Z" fill="#DADADA"/>
<path d="M967.983 265.599H947.074V347.427H967.983V265.599Z" fill="#DADADA"/>
<path d="M967.974 232.518H959.859V265.599H967.974V232.518Z" fill="#DADADA"/>
<path d="M1013 225.473H974.938V347.418H1013V225.473Z" fill="#DADADA"/>
<path d="M1041.08 243.935H1059.78V347.4H1040.89V244.088C1040.88 244.063 1040.89 244.039 1040.9 244.016C1040.91 243.994 1040.93 243.975 1040.94 243.96C1040.96 243.945 1040.99 243.935 1041.01 243.93C1041.04 243.926 1041.06 243.927 1041.08 243.935Z" fill="#DADADA"/>
<path d="M1089.23 294.687H1060.88V347.427H1089.23V294.687Z" fill="#DADADA"/>
<path d="M1115.8 283.989H1101.24V347.427H1115.8V283.989Z" fill="#DADADA"/>
<path d="M1147.77 313.22H1115.81V347.427H1147.77V313.22Z" fill="#DADADA"/>
<path d="M974.947 339.042H967.983V339.536H974.947V339.042Z" fill="#DADADA" stroke="#1D1D1D" stroke-width="0.5" stroke-miterlimit="10" stroke-linecap="round"/>
<path d="M498.684 244.124H476.092V347.427H498.684V244.124Z" fill="#DADADA"/>
<path d="M585.63 306.284H568.653V347.418H585.63V306.284Z" fill="#DADADA"/>
<path d="M792.048 197.24C792.048 195.18 794.549 191.716 797.626 191.716H814.801V331.646H826.641V234.956C826.641 232.895 829.142 231.231 832.219 231.231H844.815V325.501H862.809V288.893C862.809 286.832 865.319 285.159 868.387 285.159H912.679V339.042H936.278V284.961H926.777V236.251C926.777 234.191 929.278 232.518 932.355 232.518H947.02V339.042H967.929V232.518H960.012V229.207C960.012 227.146 962.513 225.473 965.599 225.473H974.884V339.042H1005.6V326.14H1031.23V247.587C1031.23 245.518 1033.73 243.854 1036.82 243.854H1040.95V334.282H1048.88V298.42C1048.88 296.36 1051.38 294.687 1054.46 294.687H1060.89V329.955H1073.09V335.038H1089.24V294.687H1073.09V287.723C1073.09 285.663 1075.6 283.989 1078.67 283.989H1101.23V335.038L1147.76 334.561L1231.36 317.701V347.391H414.805V335.587C414.805 333.526 417.306 331.853 420.383 331.853H429.938V308.083C429.932 307.37 430.067 306.664 430.336 306.003C430.604 305.343 431.001 304.743 431.503 304.237C432.005 303.731 432.602 303.329 433.26 303.055C433.918 302.781 434.623 302.64 435.336 302.64H464.45V248.181C464.45 246.121 466.771 244.124 469.848 244.124H478.342L477.613 334.408H498.63V244.439H490.613V227.623C490.613 225.554 493.106 223.889 496.192 223.889H503.263V331.187H512.917V272.968C512.917 270.908 515.418 269.234 518.495 269.234H527.492V341.309H557.812V331.187H585.702V306.284H568.608V269.234H592.9V257.358C592.9 255.289 595.401 253.624 598.487 253.624H612.882V330.467H651.515V339.042H662.114V277.214H651.452V219.112C651.452 217.052 653.944 215.378 657.03 215.378H673.423V332.6H694.772V328.623C694.772 326.563 697.283 324.889 700.351 324.889H703.796V324.233H745.848V278.726C745.848 276.666 748.34 274.992 751.426 274.992H761.215V326.14H787.504V339.042H800.91V275.496H792.3" fill="#DADADA"/>
<path d="M867.631 285.087H824.473V321.174H867.631V285.087Z" fill="white"/>
<path d="M945.968 231.024H913.273V313.148H945.968V231.024Z" fill="white" stroke="white" stroke-width="0.5" stroke-miterlimit="10"/>
<path d="M910.34 253.417H882.755V325.897H910.34V253.417Z" fill="#DFDFDF"/>
<path d="M559.701 256.27H543.714V325.546H559.701V256.27Z" fill="#DFDFDF"/>
<path d="M614.978 281.848H570.255V325.906H614.978V281.848Z" fill="#DFDFDF"/>
<path d="M730.266 323.873H654.034V273.049L706.873 252.356L730.266 323.873Z" fill="white" stroke="white" stroke-width="0.5" stroke-miterlimit="10"/>
<path d="M752.11 251.501H728.871V325.906H752.11V251.501Z" fill="#DFDFDF"/>
<path d="M1015.03 311.511H989.351V346.599H1015.03V311.511Z" fill="#DFDFDF"/>
<path d="M1049.14 281.848H1026.72V346.59H1049.14V281.848Z" fill="#DFDFDF"/>
<path d="M1129.04 288.281H1149.41V346.59H1128.89V288.434C1128.89 288.393 1128.9 288.354 1128.93 288.326C1128.96 288.297 1129 288.281 1129.04 288.281Z" fill="#DFDFDF"/>
<path d="M1181.45 316.882H1150.59V346.599H1181.45V316.882Z" fill="#DFDFDF"/>
<path d="M1245.18 327.318H1210.39V346.59H1245.18V327.318Z" fill="#DFDFDF"/>
<path d="M1057.06 341.876H1049.49V342.154H1057.06V341.876Z" fill="#989898" stroke="#1D1D1D" stroke-width="0.5" stroke-miterlimit="10" stroke-linecap="round"/>
<path d="M538.675 267.858H498.171V325.897H538.675V267.858Z" fill="white"/>
<path d="M633.314 302.721H614.844V325.897H633.314V302.721Z" fill="#DFDFDF"/>
<path d="M1210.4 310.854H1194.54V339.581H1210.4V310.854Z" fill="white"/>
<path d="M1056.16 341.885H1074.79V334.597H1118.39V290.341C1118.39 289.18 1121.09 288.236 1124.47 288.236H1128.88V339.186H1137.52V318.978C1137.52 317.818 1140.22 316.882 1143.6 316.882H1150.59V336.747H1163.88V339.617H1181.45V316.882H1163.88V312.959C1163.88 311.79 1166.58 310.854 1169.96 310.854H1194.54V339.644L1245.18 339.374L1336.17 329.874V346.626L985.581 348.353L447.392 346.626V291.889C447.392 290.728 450.091 289.783 453.465 289.783H463.865V317.404H482.858V269.981C482.858 268.82 485.557 267.876 488.922 267.876H498.171V318.564H538.657V267.876H529.921V258.375C529.921 257.205 532.62 256.27 535.994 256.27H543.687V316.756H554.213V283.953C554.213 282.784 556.912 281.848 560.286 281.848H570.111V322.46H603.057V316.756H633.476V302.721H614.844V281.848H591.011V275.154C591.011 273.994 593.71 273.049 597.084 273.049H654.664V316.351H704.984V321.192H717.382V286.346H704.165V253.606C704.165 252.437 707.683 251.501 711.039 251.501H728.871V317.593H752.146V315.353C752.146 314.192 754.845 313.247 758.219 313.247H761.971V312.878H807.747V287.237C807.747 286.076 810.446 285.132 813.82 285.132H824.473V313.922H853.047V321.192H867.64V284.934H858.31V255.514C858.31 254.353 858.04 255.514 858.04 255.514C858.04 254.353 860.74 253.408 864.113 253.408H882.8V316.999H895.648V233.129C895.648 231.969 898.347 231.024 901.721 231.024H916.242V313.553H935.072V283.926C935.072 282.766 936.323 279.005 941.145 280.022L989.351 302.514V341.885H1015.04V311.403H1004.7V283.953C1004.7 282.793 1007.4 281.848 1010.77 281.848H1026.72V341.885H1049.49" fill="#EDEDED"/>
<path d="M1439.51 381.012H1305.4L1404.05 68.377L1440 182.306L1439.51 381.012Z" fill="#F1F1F1"/>
<path d="M1400.62 424.099H1194.2L1297.42 166.489L1400.62 424.099Z" fill="#F1F1F1"/>
<path d="M1297.92 237.178V410.567" stroke="white" stroke-width="3" stroke-linecap="round" stroke-linejoin="round"/>
<path d="M1297.16 368.651L1263.95 332.573" stroke="white" stroke-width="3" stroke-linecap="round" stroke-linejoin="round"/>
<path d="M1297.92 300.895L1320.16 268.892" stroke="white" stroke-width="3" stroke-linecap="round" stroke-linejoin="round"/>
<path d="M1400.22 145.31V365.475" stroke="white" stroke-width="3" stroke-linecap="round" stroke-linejoin="round"/>
<path d="M1399.41 312.249L1363.24 266.436" stroke="white" stroke-width="3" stroke-linecap="round" stroke-linejoin="round"/>
<path d="M1400.22 232.994L1424.44 195.738" stroke="white" stroke-width="3" stroke-linecap="round" stroke-linejoin="round"/>
<path d="M65.5249 0V97.6081C72.5515 98.6697 78.7234 96.9063 85.7501 97.9769C81.6295 114.022 77.5149 130.06 73.4062 146.093L65.5249 97.5991V167.407L29.537 190.619V307.696C29.537 307.696 75.0617 387.715 74.6748 389.982C86.1189 365.583 124.554 360.014 168.099 389.299L175.945 368.804C152.193 333.589 152.292 182.063 148.261 123.06C153.389 112.318 154.271 101.576 159.408 90.8243C173.434 83.5188 184.114 76.2133 198.095 68.8988C202.072 68.4849 205.86 67.1983 209.647 67.0994C269.432 65.147 317.071 37.8142 333.176 0.521824L65.5249 0ZM122.359 310.323C114.369 310.656 101.873 300.265 93.8833 300.589C92.1559 299.14 89.2229 298.186 87.5045 296.738C83.114 258.222 83.5638 191.806 79.947 159.984C85.3452 137.792 90.7224 115.581 96.0786 93.3525H101.477L135.179 147.55C136.592 182.593 133.731 201.658 135.179 236.701V304.097C128.225 306.922 130.924 307.84 122.359 310.323Z" fill="#F1F1F1"/>
<path d="M133.236 76.0333L135.674 130.105L121.882 113.218L119.561 82.925L133.236 76.0333Z" fill="white"/>
<path d="M143.493 70.8691L145.04 98.7597L157.816 65.7139L143.493 70.8691Z" fill="white"/>
<path d="M164.518 62.7628L159.426 81.2785L194.802 63.8784C187.125 62.3556 179.291 61.7725 171.473 62.142C169.071 62.286 166.75 62.4929 164.518 62.7628Z" fill="white"/>
<path d="M736.141 107.568C735.886 107.582 735.631 107.543 735.393 107.451C735.155 107.36 734.939 107.219 734.759 107.038C734.58 106.856 734.441 106.639 734.352 106.4C734.263 106.161 734.225 105.906 734.242 105.651L737.139 91.5981L735.898 83.7887L728.7 70.7971C728.6 70.5655 728.552 70.3147 728.559 70.0624C728.566 69.8102 728.629 69.5625 728.742 69.337C728.855 69.1114 729.016 68.9134 729.214 68.7569C729.412 68.6003 729.642 68.4891 729.888 68.4309C730.691 68.3173 731.51 68.4105 732.267 68.7017C733.025 68.993 733.695 69.4727 734.215 70.0954L745.47 82.0163L746.748 89.8257L739.73 104.653C739.433 105.406 738.946 106.07 738.317 106.581C737.689 107.091 736.939 107.431 736.141 107.568Z" fill="#C6C6C6"/>
<path d="M723.779 86.1639L761.881 80.073C762.485 79.9755 763.103 79.9984 763.699 80.1402C764.294 80.282 764.856 80.5401 765.352 80.8995C765.847 81.2589 766.267 81.7127 766.587 82.2347C766.907 82.7568 767.121 83.3368 767.216 83.9417C767.302 84.562 767.142 85.1912 766.771 85.6954C766.399 86.1996 765.846 86.5388 765.228 86.6408L719.649 93.9013C717.544 94.2342 717.103 92.5518 716.77 90.4465L717.085 82.4752C717.082 82.4663 717.082 82.4569 717.083 82.4477C717.084 82.4385 717.088 82.4297 717.093 82.4219C717.098 82.4142 717.105 82.4077 717.113 82.4029C717.121 82.3981 717.13 82.3951 717.139 82.3942L721.637 81.6834C721.648 81.6761 721.661 81.6721 721.673 81.6721C721.686 81.6721 721.699 81.6761 721.709 81.6834L723.779 86.1639Z" fill="#F6F6F6"/>
<path d="M767.216 83.9687C767.302 84.589 767.142 85.2183 766.77 85.7224C766.399 86.2266 765.845 86.5658 765.228 86.6678L719.649 93.9284C717.85 94.2073 717.292 93.0287 716.95 91.4632L767.117 83.4739C767.162 83.6363 767.195 83.8017 767.216 83.9687Z" fill="#C6C6C6"/>
<path d="M1439.51 380.895H1328.94V539.818H1439.51V380.895Z" fill="#F1F1F1"/>
<path d="M65.5249 0H0V539.818H65.5249V0Z" fill="#F1F1F1"/>
<path d="M1134.07 398.385C1130.57 402.569 1121.15 383.621 1120.57 395.03C1120.1 404.926 1128.78 415.309 1136.15 415.21C1148.43 415.048 1157.74 406.537 1157.11 397C1156.51 387.301 1144.08 404.548 1141.97 398.862C1139.97 393.464 1158.58 383.567 1154.56 379.969C1151.33 377.117 1148.01 381.543 1145.23 380.113C1141.73 378.313 1155.25 363.495 1146.95 361.588C1135.09 358.889 1144.02 371.485 1135.25 378.223C1130.87 381.624 1130.49 372.762 1126.57 376.316C1121.11 381.309 1138.66 392.897 1134.07 398.385Z" fill="#217978"/>
<path d="M1144.83 365.951C1138.65 381.354 1137.63 400.221 1136.73 412.025" stroke="#C6C6C6" stroke-width="0.75" stroke-linecap="round" stroke-linejoin="round"/>
<path d="M1138.78 390.702C1136.93 387.135 1134.37 383.99 1131.24 381.462" stroke="#C6C6C6" stroke-width="0.75" stroke-linecap="round" stroke-linejoin="round"/>
<path d="M1150.84 382.371C1145.59 384.638 1141.17 387.472 1138.78 390.729" stroke="#C6C6C6" stroke-width="0.75" stroke-linecap="round" stroke-linejoin="round"/>
<path d="M1153.36 399.366C1148.59 401.939 1143.41 405.223 1139.61 409.083L1136.72 412.025" stroke="#C6C6C6" stroke-width="0.75" stroke-linecap="round" stroke-linejoin="round"/>
<path d="M1123.77 397.171C1129.02 401.363 1132.77 406.312 1136.6 411.836L1136.72 412.025" stroke="#C6C6C6" stroke-width="0.75" stroke-linecap="round" stroke-linejoin="round"/>
<path d="M1066.64 443.91C1061.95 448.759 1052.01 424.504 1050.3 438.512C1048.81 450.685 1058.6 464.315 1067.71 464.855C1082.89 465.755 1095.11 456.083 1095.25 444.252C1095.39 432.214 1078.47 452.394 1076.35 445.152C1074.37 438.332 1098.25 427.734 1093.56 422.947C1089.83 419.142 1085.33 424.297 1082.03 422.29C1077.86 419.744 1095.89 402.668 1085.83 399.564C1071.43 395.12 1081.33 411.485 1069.93 419.061C1064.21 422.866 1064.53 411.863 1059.37 415.921C1052.19 421.643 1072.82 437.54 1066.64 443.91Z" fill="#B2B2B2"/>
<path d="M1082.87 404.863C1073.87 423.334 1070.86 446.546 1068.69 461.04" stroke="#9D9D9C" stroke-width="0.75" stroke-linecap="round" stroke-linejoin="round"/>
<path d="M1073.16 434.841C1071.2 430.266 1068.31 426.147 1064.68 422.74" stroke="#9D9D9C" stroke-width="0.75" stroke-linecap="round" stroke-linejoin="round"/>
<path d="M1088.8 425.61C1082.13 427.932 1076.4 431.009 1073.16 434.841" stroke="#9D9D9C" stroke-width="0.75" stroke-linecap="round" stroke-linejoin="round"/>
<path d="M1090.43 446.861C1084.31 449.605 1077.61 453.159 1072.57 457.658L1068.73 461.031" stroke="#9D9D9C" stroke-width="0.75" stroke-linecap="round" stroke-linejoin="round"/>
<path d="M1054.04 441.472C1060.14 447.122 1064.34 453.573 1068.54 460.744L1068.69 460.995" stroke="#9D9D9C" stroke-width="0.75" stroke-linecap="round" stroke-linejoin="round"/>
<path d="M1050.51 433.438C1057.2 441.211 1074.44 405.34 1075.77 426.771C1076.93 445.35 1060.87 465.125 1046.98 465.125C1023.88 465.125 1006.24 449.362 1007.09 431.422C1007.99 413.159 1031.77 445.278 1035.6 434.526C1039.2 424.36 1004 406.159 1011.53 399.321C1017.52 393.923 1023.88 402.11 1029.06 399.321C1035.6 395.848 1009.82 368.345 1025.36 364.539C1047.58 359.141 1031.13 383.019 1047.69 395.516C1056.02 401.813 1056.52 385.115 1063.97 391.719C1074.44 400.986 1041.73 423.226 1050.51 433.438Z" fill="#57B999"/>
<path d="M1030.48 379.24C1041.27 405.178 1043.48 437.09 1045.27 457.037" stroke="#EDEDED" stroke-linecap="round" stroke-linejoin="round"/>
<path d="M1041.29 420.995C1044.34 414.914 1048.61 409.529 1053.83 405.178" stroke="#EDEDED" stroke-linecap="round" stroke-linejoin="round"/>
<path d="M1020.69 407.131C1029.61 410.837 1037.18 415.534 1041.29 420.995" stroke="#EDEDED" stroke-linecap="round" stroke-linejoin="round"/>
<path d="M1018.21 436.002C1026.34 440.246 1033.79 445.683 1040.31 452.133L1045.27 457.037" stroke="#EDEDED" stroke-linecap="round" stroke-linejoin="round"/>
<path d="M1068.24 431.593C1059.45 438.807 1051.77 447.27 1045.45 456.713L1045.23 457.037" stroke="#EDEDED" stroke-linecap="round" stroke-linejoin="round"/>
<path d="M1084.64 469.327C1084.64 469.327 1037.41 469.327 1032.58 468.319C1030.15 467.824 1022.59 464.333 1020.12 464.279C1017.26 464.216 1009.86 467.806 1007.04 468.319C1003.81 468.904 1000.99 469.327 1000.99 469.327" fill="#DADADA"/>
<path d="M1084.64 469.327C1084.64 469.327 1037.41 469.327 1032.58 468.319C1030.15 467.824 1022.59 464.333 1020.12 464.279C1017.26 464.216 1009.86 467.806 1007.04 468.319C1003.81 468.904 1000.99 469.327 1000.99 469.327" stroke="#C6C6C6" stroke-linecap="round" stroke-linejoin="round"/>
<path d="M1118.75 417.081C1118.75 417.081 1140.48 417.081 1143.22 416.506C1144.58 416.227 1148.85 414.256 1150.24 414.229C1151.86 414.229 1156.04 416.218 1157.63 416.506C1159.43 416.838 1161.17 417.081 1161.17 417.081" fill="#DADADA"/>
<path d="M1118.75 417.081C1118.75 417.081 1140.48 417.081 1143.22 416.506C1144.58 416.227 1148.85 414.256 1150.24 414.229C1151.86 414.229 1156.04 416.218 1157.63 416.506C1159.43 416.838 1161.17 417.081 1161.17 417.081" stroke="#C6C6C6" stroke-linecap="round" stroke-linejoin="round"/>
<path d="M1117 126.686C1117.27 94.2971 1140.12 68.026 1168.28 68.026C1188.4 68.026 1205.8 81.4045 1214.17 100.892C1218.77 98.3208 1223.95 96.9675 1229.22 96.9602C1245.29 96.9602 1258.86 109.556 1262.89 126.731" fill="#F6F6F6"/>
<path d="M929.755 157.852C929.611 140.587 917.447 126.614 902.467 126.614C891.761 126.614 882.494 133.74 878.014 144.122C875.569 142.748 872.811 142.026 870.006 142.026C861.441 142.026 854.226 148.747 852.075 157.87" fill="#F6F6F6"/>
<path d="M990.188 359.933H995.964C996.316 359.933 996.661 359.83 996.955 359.637C997.249 359.443 997.48 359.167 997.619 358.844L998.438 356.946C998.58 356.629 998.811 356.36 999.102 356.171C999.393 355.983 999.733 355.882 1000.08 355.882C1000.43 355.882 1000.77 355.983 1001.06 356.171C1001.35 356.36 1001.58 356.629 1001.72 356.946C1001.86 357.237 1002.07 357.487 1002.33 357.669C1002.6 357.852 1002.91 357.96 1003.23 357.983C1003.55 358.006 1003.87 357.943 1004.15 357.8C1004.44 357.657 1004.69 357.44 1004.86 357.17L1005.46 356.217C1005.64 355.937 1005.9 355.711 1006.2 355.566C1006.49 355.421 1006.83 355.361 1007.16 355.394C1007.49 355.426 1007.8 355.55 1008.07 355.751C1008.33 355.952 1008.54 356.222 1008.66 356.532L1009.56 358.799C1009.69 359.137 1009.92 359.428 1010.22 359.633C1010.52 359.839 1010.87 359.949 1011.23 359.951H1015.28C1015.64 359.948 1016 359.835 1016.3 359.626C1016.6 359.417 1016.83 359.122 1016.95 358.781L1020.03 350.684C1020.16 350.351 1020.39 350.064 1020.68 349.86C1020.97 349.655 1021.32 349.543 1021.67 349.536C1022.03 349.529 1022.38 349.629 1022.68 349.822C1022.98 350.015 1023.22 350.293 1023.36 350.621L1025.98 356.775C1026.11 357.074 1026.32 357.332 1026.58 357.522C1026.85 357.712 1027.16 357.826 1027.49 357.852C1027.81 357.877 1028.14 357.814 1028.43 357.669C1028.72 357.524 1028.97 357.302 1029.14 357.026L1030.22 355.326C1030.37 355.088 1030.58 354.889 1030.82 354.746C1031.07 354.604 1031.34 354.521 1031.63 354.505C1031.91 354.489 1032.19 354.541 1032.45 354.655C1032.71 354.77 1032.94 354.944 1033.12 355.164L1036.43 359.258C1036.6 359.461 1036.81 359.626 1037.05 359.739C1037.29 359.853 1037.55 359.913 1037.81 359.915H1040.43C1040.72 359.914 1041 359.843 1041.26 359.709C1041.52 359.574 1041.74 359.379 1041.9 359.141L1042.39 358.43C1042.57 358.172 1042.81 357.966 1043.09 357.831C1043.38 357.696 1043.69 357.637 1044 357.661C1044.32 357.685 1044.62 357.79 1044.88 357.965C1045.14 358.141 1045.35 358.382 1045.48 358.664L1045.59 358.898C1045.74 359.202 1045.97 359.459 1046.25 359.639C1046.54 359.819 1046.87 359.914 1047.21 359.915H1049.01C1049.39 359.914 1049.76 359.794 1050.07 359.571C1050.37 359.348 1050.6 359.034 1050.72 358.673L1051.42 356.595C1051.53 356.28 1051.72 356.001 1051.97 355.788C1052.23 355.576 1052.54 355.438 1052.87 355.391C1053.2 355.343 1053.53 355.387 1053.84 355.519C1054.14 355.651 1054.41 355.864 1054.6 356.136L1055.29 357.125C1055.48 357.389 1055.74 357.596 1056.03 357.725C1056.33 357.854 1056.66 357.901 1056.98 357.859C1057.3 357.818 1057.61 357.69 1057.86 357.489C1058.12 357.289 1058.31 357.023 1058.43 356.721L1060.54 351.035C1060.66 350.69 1060.89 350.393 1061.19 350.183C1061.5 349.974 1061.85 349.861 1062.22 349.861C1062.59 349.861 1062.95 349.974 1063.25 350.183C1063.55 350.393 1063.78 350.69 1063.91 351.035L1066.49 357.908C1066.58 358.154 1066.72 358.377 1066.91 358.562C1067.09 358.748 1067.32 358.89 1067.56 358.98C1067.81 359.07 1068.07 359.105 1068.33 359.083C1068.59 359.061 1068.85 358.983 1069.07 358.853L1077.46 353.932C1077.81 353.731 1078.21 353.654 1078.61 353.711C1079.01 353.768 1079.38 353.956 1079.65 354.246L1084.47 359.357C1084.63 359.534 1084.83 359.674 1085.05 359.77C1085.27 359.867 1085.51 359.916 1085.75 359.915H1089.15C1089.51 359.912 1089.87 359.796 1090.18 359.582C1090.48 359.367 1090.7 359.066 1090.83 358.718L1092.16 355.074C1092.27 354.768 1092.47 354.497 1092.72 354.292C1092.97 354.088 1093.28 353.956 1093.6 353.912C1093.93 353.867 1094.26 353.912 1094.56 354.041C1094.86 354.169 1095.12 354.377 1095.31 354.642L1097.04 357.045C1097.19 357.239 1097.37 357.403 1097.58 357.527C1097.78 357.651 1098.01 357.731 1098.25 357.764C1098.49 357.797 1098.74 357.781 1098.97 357.718C1099.2 357.654 1099.42 357.545 1099.61 357.395L1105.2 352.897C1105.55 352.618 1106 352.483 1106.45 352.518C1106.9 352.553 1107.32 352.755 1107.63 353.086L1111.88 357.764C1112.09 357.988 1112.35 358.155 1112.64 358.249C1112.93 358.344 1113.24 358.364 1113.54 358.306C1113.84 358.249 1114.12 358.116 1114.35 357.92C1114.59 357.725 1114.77 357.473 1114.88 357.188L1117.88 349.496C1118.01 349.158 1118.24 348.867 1118.54 348.661C1118.84 348.456 1119.2 348.347 1119.56 348.347C1119.92 348.347 1120.28 348.456 1120.58 348.661C1120.88 348.867 1121.11 349.158 1121.24 349.496L1124.24 357.404C1124.35 357.678 1124.51 357.923 1124.73 358.117C1124.95 358.311 1125.22 358.449 1125.5 358.518C1125.79 358.587 1126.08 358.586 1126.37 358.514C1126.65 358.442 1126.91 358.302 1127.13 358.106L1128.63 354.93C1128.91 354.68 1129.26 354.522 1129.63 354.479C1130 354.435 1130.37 354.508 1130.7 354.687L1135.64 355.641C1135.98 355.824 1136.36 355.895 1136.74 355.845C1137.12 355.795 1137.47 355.626 1137.75 355.362L1142.19 351.053C1142.38 350.876 1142.6 350.742 1142.84 350.658C1143.09 350.575 1143.34 350.545 1143.6 350.569C1143.86 350.594 1144.1 350.673 1144.33 350.802C1144.55 350.93 1144.74 351.105 1144.89 351.313L1147.45 355.002C1147.7 355.352 1148.06 355.603 1148.48 355.71C1148.89 355.817 1149.33 355.774 1149.71 355.587L1152.95 353.959C1153.18 353.848 1153.42 353.786 1153.67 353.775C1153.92 353.764 1154.17 353.805 1154.4 353.896L1159.02 359.294C1159.42 359.445 1159.86 359.452 1160.26 359.314C1160.66 359.176 1160.99 358.901 1161.21 358.538L1164.72 352.681C1164.87 352.436 1165.08 352.23 1165.32 352.081C1165.57 351.933 1165.85 351.846 1166.14 351.827C1166.42 351.809 1166.71 351.859 1166.98 351.975C1167.24 352.091 1167.47 352.268 1167.65 352.492L1172.43 358.511C1172.72 358.869 1173.13 359.104 1173.58 359.169C1174.03 359.234 1174.49 359.124 1174.87 358.862L1178.09 356.559C1178.39 356.348 1178.75 356.235 1179.12 356.235C1179.49 356.235 1179.85 356.348 1180.15 356.559L1182.85 358.52C1183.07 358.675 1183.33 358.777 1183.59 358.819C1183.86 358.861 1184.14 358.842 1184.4 358.763C1184.66 358.684 1184.89 358.548 1185.09 358.364C1185.29 358.18 1185.45 357.954 1185.55 357.701L1187.91 351.763C1188.04 351.436 1188.26 351.155 1188.55 350.954C1188.84 350.754 1189.19 350.644 1189.54 350.637C1189.89 350.63 1190.24 350.728 1190.54 350.917C1190.84 351.106 1191.07 351.378 1191.22 351.7L1193.77 357.458C1193.89 357.724 1194.07 357.956 1194.29 358.137C1194.52 358.318 1194.79 358.442 1195.07 358.498C1195.36 358.553 1195.65 358.539 1195.93 358.457C1196.21 358.375 1196.46 358.227 1196.67 358.025L1199.12 355.596C1199.43 355.294 1199.84 355.116 1200.27 355.092C1200.7 355.069 1201.13 355.203 1201.47 355.47L1205.28 358.484C1205.49 358.645 1205.73 358.757 1205.99 358.814C1206.25 358.871 1206.51 358.87 1206.77 358.811C1207.03 358.753 1207.27 358.638 1207.48 358.476C1207.69 358.314 1207.86 358.108 1207.98 357.872L1211.84 350.216C1211.97 349.953 1212.17 349.727 1212.41 349.558C1212.65 349.389 1212.93 349.283 1213.23 349.248C1213.52 349.213 1213.82 349.252 1214.09 349.359C1214.37 349.467 1214.61 349.64 1214.81 349.865L1215.94 354.894L1216.84 356.325L1218.04 357.332C1219.21 358.331 1221.89 357.476 1221.89 355.911L1228.18 342.757C1228.18 341.732 1223.78 340.913 1222.79 340.913H990.188C989.948 340.913 989.71 340.961 989.489 341.054C989.267 341.147 989.067 341.284 988.899 341.456C988.732 341.628 988.6 341.831 988.512 342.055C988.425 342.278 988.382 342.517 988.388 342.757V358.079C988.381 358.32 988.422 358.56 988.51 358.784C988.597 359.009 988.728 359.214 988.896 359.387C989.064 359.559 989.265 359.697 989.487 359.791C989.708 359.884 989.947 359.933 990.188 359.933Z" fill="#EDEDED"/>
<path d="M515.031 359.933H520.834C521.185 359.931 521.528 359.827 521.82 359.634C522.113 359.441 522.342 359.166 522.481 358.844L523.308 356.946C523.45 356.629 523.681 356.36 523.972 356.171C524.264 355.983 524.603 355.882 524.95 355.882C525.297 355.882 525.637 355.983 525.928 356.171C526.22 356.36 526.45 356.629 526.592 356.946C526.727 357.237 526.938 357.487 527.203 357.669C527.467 357.852 527.776 357.96 528.096 357.983C528.416 358.006 528.737 357.943 529.025 357.8C529.313 357.657 529.557 357.44 529.732 357.17L530.344 356.217C530.523 355.939 530.776 355.716 531.074 355.572C531.372 355.429 531.703 355.37 532.033 355.402C532.362 355.435 532.675 355.558 532.939 355.757C533.203 355.956 533.407 356.224 533.529 356.532L534.429 358.799C534.559 359.136 534.787 359.426 535.084 359.631C535.38 359.836 535.732 359.948 536.093 359.95H540.142C540.508 359.95 540.865 359.838 541.166 359.629C541.466 359.42 541.696 359.124 541.824 358.781L544.892 350.684C545.02 350.348 545.245 350.059 545.539 349.852C545.832 349.646 546.181 349.532 546.54 349.525C546.899 349.518 547.251 349.619 547.553 349.814C547.854 350.009 548.09 350.29 548.23 350.621L550.848 356.775C550.979 357.072 551.188 357.328 551.453 357.516C551.717 357.704 552.028 357.817 552.352 357.843C552.676 357.869 553 357.807 553.292 357.663C553.583 357.519 553.83 357.299 554.006 357.026L555.113 355.38C555.267 355.143 555.475 354.946 555.719 354.805C555.964 354.663 556.238 354.581 556.52 354.565C556.802 354.55 557.084 354.6 557.343 354.714C557.602 354.827 557.83 355 558.01 355.218L561.321 359.312C561.489 359.516 561.7 359.682 561.94 359.795C562.179 359.909 562.441 359.968 562.706 359.969H565.324C565.613 359.967 565.897 359.895 566.152 359.761C566.407 359.626 566.626 359.432 566.791 359.195L567.286 358.484C567.465 358.228 567.707 358.024 567.989 357.89C568.272 357.757 568.584 357.699 568.895 357.722C569.206 357.746 569.506 357.85 569.765 358.025C570.024 358.199 570.233 358.438 570.371 358.718L570.488 358.952C570.635 359.255 570.863 359.511 571.148 359.691C571.433 359.87 571.762 359.967 572.099 359.969H573.898C574.276 359.966 574.644 359.845 574.949 359.622C575.254 359.4 575.482 359.086 575.599 358.727L576.3 356.649C576.406 356.332 576.597 356.05 576.854 355.836C577.11 355.622 577.421 355.483 577.751 355.436C578.082 355.388 578.419 355.433 578.725 355.567C579.032 355.7 579.295 355.916 579.485 356.19L580.169 357.179C580.358 357.445 580.616 357.655 580.914 357.785C581.213 357.916 581.542 357.963 581.865 357.921C582.188 357.88 582.494 357.751 582.75 357.549C583.006 357.347 583.202 357.079 583.318 356.775L585.423 351.089C585.553 350.747 585.783 350.453 586.084 350.246C586.384 350.038 586.741 349.927 587.106 349.927C587.471 349.927 587.827 350.038 588.128 350.246C588.428 350.453 588.659 350.747 588.788 351.089L591.37 357.962C591.46 358.208 591.603 358.431 591.788 358.616C591.973 358.802 592.196 358.944 592.442 359.034C592.688 359.124 592.95 359.159 593.211 359.137C593.472 359.115 593.725 359.037 593.952 358.907L602.347 353.986C602.694 353.788 603.098 353.711 603.494 353.768C603.89 353.825 604.255 354.012 604.533 354.3L609.346 359.411C609.514 359.586 609.715 359.726 609.937 359.822C610.16 359.918 610.399 359.968 610.642 359.969H614.025C614.396 359.968 614.757 359.852 615.06 359.638C615.363 359.424 615.592 359.121 615.716 358.772L617.039 355.128C617.15 354.819 617.344 354.547 617.6 354.341C617.855 354.134 618.162 354.002 618.487 353.957C618.812 353.913 619.144 353.958 619.445 354.088C619.746 354.219 620.006 354.429 620.197 354.696L621.924 357.098C622.067 357.295 622.248 357.46 622.456 357.584C622.664 357.709 622.895 357.79 623.136 357.823C623.376 357.855 623.621 357.839 623.855 357.775C624.089 357.711 624.307 357.6 624.497 357.449L630.084 352.951C630.439 352.672 630.886 352.537 631.336 352.572C631.786 352.607 632.206 352.809 632.514 353.14L636.76 357.818C636.968 358.042 637.229 358.209 637.519 358.303C637.809 358.398 638.118 358.418 638.418 358.36C638.717 358.303 638.997 358.17 639.231 357.974C639.465 357.779 639.646 357.527 639.756 357.242L642.77 349.55C642.901 349.212 643.132 348.921 643.431 348.715C643.73 348.51 644.085 348.401 644.448 348.401C644.811 348.401 645.165 348.51 645.465 348.715C645.764 348.921 645.995 349.212 646.126 349.55L649.131 357.458C649.235 357.731 649.403 357.974 649.622 358.167C649.841 358.36 650.103 358.496 650.386 358.565C650.669 358.634 650.965 358.634 651.248 358.563C651.531 358.492 651.792 358.354 652.01 358.16L653.521 354.984C653.798 354.736 654.144 354.579 654.513 354.536C654.882 354.492 655.255 354.564 655.582 354.741L660.53 355.695C660.864 355.876 661.247 355.946 661.624 355.896C662 355.846 662.351 355.678 662.626 355.416L667.08 351.106C667.267 350.93 667.489 350.796 667.732 350.712C667.975 350.629 668.233 350.599 668.489 350.623C668.744 350.648 668.992 350.727 669.214 350.856C669.437 350.984 669.629 351.158 669.779 351.367L672.343 355.056C672.589 355.408 672.953 355.661 673.369 355.768C673.784 355.875 674.225 355.83 674.61 355.641L677.849 354.013C678.073 353.902 678.317 353.84 678.567 353.829C678.816 353.818 679.065 353.859 679.298 353.95L683.913 359.348C684.308 359.499 684.744 359.506 685.144 359.368C685.544 359.229 685.882 358.955 686.099 358.592L689.617 352.735C689.768 352.49 689.975 352.284 690.222 352.135C690.469 351.987 690.747 351.9 691.035 351.881C691.322 351.863 691.61 351.913 691.873 352.029C692.137 352.145 692.369 352.322 692.55 352.546L697.319 358.565C697.604 358.925 698.017 359.162 698.472 359.227C698.927 359.292 699.39 359.181 699.766 358.916L702.978 356.613C703.28 356.402 703.639 356.289 704.008 356.289C704.376 356.289 704.736 356.402 705.038 356.613L707.791 358.574C708.014 358.728 708.269 358.831 708.537 358.873C708.805 358.915 709.079 358.896 709.339 358.817C709.598 358.738 709.837 358.602 710.036 358.418C710.235 358.234 710.391 358.008 710.49 357.755L712.847 351.817C712.982 351.491 713.21 351.212 713.502 351.014C713.794 350.816 714.138 350.709 714.491 350.705C714.844 350.701 715.19 350.801 715.486 350.992C715.783 351.184 716.016 351.458 716.158 351.781L718.704 357.539C718.826 357.794 719.006 358.017 719.23 358.19C719.454 358.362 719.716 358.48 719.994 358.532C720.271 358.585 720.558 358.571 720.829 358.492C721.101 358.414 721.35 358.272 721.556 358.079L724.004 355.65C724.316 355.346 724.728 355.166 725.163 355.143C725.598 355.119 726.027 355.255 726.37 355.524L730.167 358.538C730.376 358.699 730.619 358.811 730.877 358.868C731.135 358.925 731.402 358.924 731.66 358.865C731.917 358.807 732.159 358.692 732.367 358.53C732.576 358.368 732.746 358.162 732.866 357.926L736.725 350.27C736.859 350.005 737.057 349.777 737.3 349.607C737.544 349.437 737.825 349.33 738.12 349.295C738.415 349.261 738.714 349.299 738.99 349.408C739.266 349.517 739.511 349.692 739.703 349.919L740.828 354.948L741.728 356.379L742.924 357.386C744.103 358.385 746.784 357.53 746.784 355.965L753.082 342.811C753.082 341.786 748.673 340.967 747.684 340.967H515.031C514.791 340.967 514.553 341.015 514.332 341.108C514.111 341.201 513.91 341.338 513.743 341.51C513.575 341.682 513.443 341.885 513.356 342.109C513.268 342.332 513.226 342.571 513.232 342.811V358.079C513.225 358.32 513.266 358.56 513.353 358.784C513.44 359.009 513.572 359.214 513.739 359.387C513.907 359.559 514.108 359.697 514.33 359.791C514.552 359.884 514.79 359.933 515.031 359.933Z" fill="#EDEDED"/>
<path d="M357.962 361.768H363.765C364.116 361.767 364.459 361.663 364.751 361.47C365.044 361.276 365.273 361.001 365.412 360.679L366.239 358.781C366.381 358.464 366.612 358.195 366.903 358.007C367.195 357.818 367.534 357.718 367.881 357.718C368.228 357.718 368.568 357.818 368.859 358.007C369.151 358.195 369.381 358.464 369.523 358.781C369.659 359.072 369.869 359.322 370.134 359.505C370.398 359.687 370.707 359.795 371.027 359.818C371.347 359.841 371.668 359.778 371.956 359.635C372.244 359.492 372.488 359.275 372.663 359.006L373.275 358.052C373.454 357.774 373.707 357.551 374.005 357.408C374.303 357.264 374.634 357.205 374.964 357.238C375.293 357.27 375.606 357.393 375.87 357.592C376.134 357.791 376.338 358.06 376.46 358.367L377.36 360.634C377.49 360.972 377.72 361.263 378.018 361.469C378.317 361.674 378.671 361.785 379.033 361.786H383.073C383.439 361.785 383.796 361.673 384.097 361.464C384.397 361.255 384.627 360.959 384.755 360.616L387.823 352.519C387.951 352.184 388.176 351.894 388.47 351.688C388.763 351.481 389.112 351.367 389.471 351.36C389.83 351.354 390.182 351.454 390.484 351.65C390.785 351.845 391.021 352.126 391.161 352.456L393.779 358.61C393.91 358.907 394.119 359.164 394.384 359.352C394.648 359.54 394.959 359.653 395.283 359.679C395.607 359.704 395.931 359.642 396.223 359.498C396.514 359.355 396.761 359.135 396.937 358.862L398.017 357.161C398.171 356.925 398.379 356.728 398.623 356.586C398.868 356.444 399.142 356.362 399.424 356.347C399.706 356.331 399.988 356.382 400.247 356.495C400.506 356.609 400.734 356.781 400.914 357L404.225 361.093C404.393 361.298 404.604 361.463 404.844 361.577C405.083 361.69 405.345 361.749 405.61 361.75H408.228C408.517 361.748 408.801 361.677 409.056 361.542C409.311 361.407 409.53 361.213 409.695 360.976L410.19 360.265C410.369 360.01 410.611 359.805 410.894 359.672C411.176 359.538 411.488 359.48 411.799 359.504C412.11 359.527 412.41 359.632 412.669 359.806C412.928 359.981 413.137 360.22 413.276 360.499L413.392 360.733C413.539 361.036 413.767 361.292 414.052 361.472C414.337 361.652 414.666 361.748 415.003 361.75H416.802C417.18 361.748 417.548 361.627 417.853 361.404C418.158 361.181 418.386 360.868 418.503 360.508L419.205 358.43C419.31 358.113 419.502 357.832 419.758 357.618C420.014 357.403 420.325 357.265 420.655 357.217C420.986 357.17 421.323 357.215 421.629 357.348C421.936 357.481 422.199 357.697 422.389 357.971L423.073 358.961C423.262 359.227 423.52 359.436 423.818 359.567C424.117 359.697 424.446 359.744 424.769 359.703C425.092 359.661 425.398 359.533 425.654 359.331C425.91 359.129 426.107 358.861 426.222 358.556L428.327 352.87C428.457 352.529 428.687 352.235 428.988 352.027C429.288 351.82 429.645 351.709 430.01 351.709C430.375 351.709 430.731 351.82 431.032 352.027C431.333 352.235 431.563 352.529 431.692 352.87L434.274 359.744C434.364 359.989 434.507 360.213 434.692 360.398C434.877 360.583 435.1 360.726 435.346 360.815C435.592 360.905 435.855 360.941 436.115 360.919C436.376 360.897 436.629 360.818 436.857 360.688L445.251 355.767C445.598 355.569 446.002 355.492 446.398 355.549C446.794 355.606 447.159 355.794 447.437 356.082L452.25 361.192C452.418 361.368 452.619 361.507 452.841 361.603C453.064 361.699 453.304 361.749 453.546 361.75H456.929C457.3 361.749 457.661 361.634 457.964 361.42C458.267 361.205 458.496 360.903 458.62 360.553L459.943 356.955C460.054 356.646 460.248 356.374 460.504 356.167C460.759 355.961 461.066 355.828 461.391 355.784C461.716 355.739 462.048 355.784 462.349 355.915C462.65 356.045 462.91 356.255 463.101 356.523L464.828 358.925C464.971 359.121 465.152 359.286 465.36 359.411C465.568 359.535 465.799 359.616 466.04 359.649C466.28 359.682 466.525 359.666 466.759 359.601C466.993 359.537 467.211 359.427 467.401 359.276L472.988 354.777C473.343 354.498 473.79 354.363 474.24 354.398C474.69 354.433 475.11 354.636 475.418 354.966L479.673 359.645C479.881 359.866 480.141 360.031 480.43 360.125C480.719 360.218 481.027 360.237 481.325 360.18C481.623 360.122 481.902 359.99 482.135 359.796C482.369 359.602 482.549 359.352 482.66 359.069L485.674 351.376C485.805 351.038 486.036 350.747 486.335 350.542C486.635 350.337 486.989 350.227 487.352 350.227C487.715 350.227 488.069 350.337 488.369 350.542C488.668 350.747 488.899 351.038 489.03 351.376L492.035 359.285C492.139 359.557 492.307 359.8 492.526 359.993C492.745 360.186 493.007 360.323 493.29 360.392C493.573 360.461 493.869 360.46 494.152 360.389C494.435 360.319 494.696 360.181 494.914 359.987L496.425 356.811C496.702 356.562 497.048 356.406 497.417 356.362C497.786 356.319 498.159 356.391 498.486 356.568L503.434 357.521C503.768 357.702 504.151 357.772 504.527 357.722C504.904 357.672 505.255 357.504 505.53 357.242L510.029 352.933C510.216 352.756 510.438 352.622 510.681 352.539C510.924 352.455 511.182 352.425 511.438 352.45C511.693 352.475 511.941 352.554 512.163 352.682C512.386 352.81 512.578 352.985 512.728 353.194L515.283 356.883C515.529 357.235 515.893 357.487 516.309 357.594C516.724 357.701 517.165 357.656 517.55 357.467L520.789 355.839C521.013 355.729 521.257 355.666 521.507 355.655C521.756 355.644 522.005 355.685 522.238 355.776L526.853 361.174C527.248 361.325 527.684 361.332 528.084 361.194C528.484 361.056 528.822 360.781 529.039 360.418L532.557 354.561C532.708 354.316 532.915 354.11 533.162 353.962C533.409 353.813 533.687 353.726 533.975 353.707C534.262 353.689 534.55 353.74 534.813 353.855C535.077 353.971 535.309 354.148 535.49 354.372L540.259 360.391C540.544 360.751 540.957 360.988 541.412 361.054C541.867 361.119 542.33 361.007 542.706 360.742L545.918 358.439C546.22 358.228 546.579 358.115 546.948 358.115C547.316 358.115 547.676 358.228 547.978 358.439L550.731 360.4C550.954 360.555 551.209 360.657 551.477 360.699C551.745 360.741 552.019 360.722 552.279 360.644C552.538 360.565 552.777 360.428 552.976 360.244C553.175 360.061 553.331 359.834 553.43 359.582L555.787 353.644C555.918 353.314 556.143 353.03 556.435 352.827C556.727 352.625 557.072 352.514 557.426 352.507C557.781 352.5 558.13 352.598 558.429 352.79C558.728 352.981 558.964 353.256 559.107 353.581L561.653 359.339C561.77 359.604 561.95 359.837 562.176 360.018C562.403 360.199 562.67 360.322 562.954 360.378C563.239 360.434 563.532 360.42 563.81 360.338C564.088 360.255 564.342 360.107 564.55 359.906L566.998 357.476C567.31 357.172 567.722 356.992 568.157 356.969C568.592 356.946 569.021 357.081 569.364 357.35L573.17 360.364C573.379 360.525 573.622 360.638 573.88 360.694C574.138 360.751 574.405 360.75 574.663 360.692C574.92 360.633 575.162 360.519 575.37 360.357C575.579 360.194 575.749 359.988 575.869 359.753L579.737 352.096C579.872 351.833 580.069 351.607 580.312 351.438C580.554 351.27 580.835 351.163 581.128 351.129C581.422 351.094 581.719 351.132 581.994 351.24C582.27 351.347 582.514 351.521 582.706 351.745L583.831 356.775L584.731 358.205L585.918 359.213C587.097 360.211 589.778 359.357 589.778 357.791L596.076 344.638C596.076 343.612 591.667 342.793 590.678 342.793H357.962C357.722 342.793 357.484 342.841 357.263 342.934C357.042 343.028 356.841 343.164 356.674 343.336C356.506 343.508 356.374 343.712 356.287 343.935C356.199 344.159 356.157 344.398 356.163 344.638V359.879C356.151 360.122 356.188 360.366 356.273 360.595C356.358 360.824 356.489 361.033 356.657 361.209C356.825 361.386 357.028 361.527 357.252 361.623C357.477 361.719 357.718 361.768 357.962 361.768Z" fill="#EDEDED"/>
<path d="M754.683 359.591H760.486C760.838 359.589 761.181 359.484 761.474 359.288C761.767 359.093 761.996 358.817 762.133 358.493L762.961 356.604C763.102 356.287 763.333 356.018 763.624 355.829C763.916 355.641 764.255 355.54 764.602 355.54C764.949 355.54 765.289 355.641 765.581 355.829C765.872 356.018 766.102 356.287 766.244 356.604C766.38 356.895 766.59 357.145 766.855 357.327C767.119 357.51 767.428 357.618 767.748 357.641C768.069 357.664 768.389 357.601 768.677 357.458C768.965 357.315 769.209 357.098 769.384 356.829L769.996 355.875C770.175 355.595 770.428 355.369 770.727 355.224C771.026 355.079 771.359 355.019 771.69 355.052C772.021 355.084 772.336 355.208 772.601 355.409C772.865 355.61 773.069 355.88 773.19 356.19L774.09 358.457C774.22 358.795 774.45 359.086 774.748 359.292C775.047 359.497 775.401 359.608 775.763 359.609H779.803C780.169 359.608 780.526 359.496 780.827 359.287C781.127 359.078 781.357 358.782 781.485 358.439L784.553 350.342C784.681 350.006 784.906 349.717 785.2 349.51C785.493 349.304 785.842 349.19 786.201 349.183C786.56 349.176 786.912 349.277 787.214 349.472C787.515 349.667 787.751 349.948 787.891 350.279L790.509 356.433C790.639 356.732 790.848 356.99 791.114 357.18C791.379 357.37 791.692 357.484 792.017 357.51C792.342 357.536 792.669 357.472 792.961 357.327C793.253 357.182 793.5 356.96 793.676 356.685L794.747 354.984C794.9 354.747 795.107 354.549 795.351 354.407C795.596 354.264 795.87 354.181 796.152 354.165C796.434 354.148 796.716 354.198 796.975 354.311C797.235 354.423 797.464 354.596 797.644 354.813L800.955 358.916C801.123 359.121 801.334 359.286 801.574 359.399C801.813 359.513 802.075 359.572 802.34 359.573H804.958C805.249 359.571 805.535 359.499 805.792 359.363C806.049 359.226 806.269 359.03 806.434 358.79L806.92 358.088C807.098 357.83 807.341 357.624 807.625 357.489C807.908 357.354 808.221 357.295 808.534 357.319C808.847 357.343 809.148 357.448 809.408 357.624C809.667 357.8 809.877 358.04 810.015 358.322L810.123 358.547C810.268 358.852 810.496 359.11 810.781 359.291C811.065 359.472 811.395 359.57 811.733 359.573H813.532C813.912 359.572 814.282 359.452 814.589 359.229C814.896 359.006 815.124 358.692 815.242 358.331L815.935 356.253C816.04 355.936 816.232 355.655 816.488 355.44C816.744 355.226 817.055 355.087 817.385 355.04C817.716 354.992 818.053 355.038 818.359 355.171C818.666 355.304 818.929 355.52 819.12 355.794L819.812 356.775C820.002 357.038 820.259 357.245 820.557 357.374C820.854 357.503 821.181 357.55 821.503 357.508C821.825 357.467 822.129 357.339 822.384 357.139C822.64 356.938 822.836 356.672 822.952 356.37L825.058 350.693C825.185 350.348 825.416 350.051 825.717 349.842C826.019 349.632 826.377 349.519 826.744 349.519C827.112 349.519 827.47 349.632 827.772 349.842C828.073 350.051 828.304 350.348 828.431 350.693L831.013 357.575C831.108 357.816 831.254 358.034 831.44 358.213C831.627 358.392 831.85 358.529 832.094 358.615C832.338 358.7 832.598 358.732 832.856 358.708C833.113 358.684 833.363 358.604 833.587 358.475L841.981 353.563C842.328 353.365 842.732 353.288 843.128 353.345C843.524 353.402 843.89 353.589 844.167 353.878L848.98 358.988C849.148 359.163 849.349 359.303 849.571 359.399C849.794 359.495 850.034 359.545 850.276 359.546H853.659C854.03 359.545 854.391 359.429 854.694 359.215C854.997 359.001 855.226 358.698 855.35 358.349L856.682 354.705C856.794 354.399 856.988 354.128 857.243 353.924C857.497 353.719 857.803 353.587 858.127 353.543C858.45 353.498 858.78 353.543 859.08 353.672C859.38 353.8 859.64 354.008 859.831 354.273L861.558 356.676C861.701 356.872 861.882 357.037 862.09 357.161C862.298 357.286 862.53 357.367 862.77 357.4C863.01 357.432 863.255 357.416 863.489 357.352C863.723 357.288 863.941 357.177 864.131 357.026L869.718 352.528C870.073 352.249 870.52 352.114 870.97 352.149C871.42 352.184 871.84 352.387 872.148 352.717L876.403 357.395C876.611 357.619 876.872 357.786 877.162 357.88C877.452 357.975 877.761 357.995 878.061 357.937C878.36 357.88 878.64 357.747 878.874 357.551C879.109 357.356 879.289 357.104 879.399 356.82L882.404 349.118C882.535 348.78 882.766 348.489 883.065 348.284C883.365 348.078 883.719 347.969 884.082 347.969C884.445 347.969 884.8 348.078 885.099 348.284C885.399 348.489 885.629 348.78 885.76 349.118L888.765 357.026C888.869 357.299 889.037 357.542 889.256 357.735C889.475 357.928 889.737 358.065 890.02 358.134C890.303 358.203 890.599 358.202 890.882 358.131C891.165 358.061 891.426 357.922 891.644 357.728L893.156 354.552C893.432 354.304 893.778 354.148 894.147 354.104C894.516 354.061 894.889 354.132 895.216 354.309L900.164 355.263C900.499 355.446 900.884 355.517 901.262 355.467C901.641 355.417 901.993 355.248 902.269 354.984L906.714 350.675C906.901 350.498 907.123 350.364 907.366 350.28C907.609 350.197 907.867 350.167 908.123 350.192C908.378 350.216 908.626 350.295 908.849 350.424C909.071 350.552 909.264 350.727 909.413 350.936L911.968 354.624C912.214 354.976 912.578 355.229 912.994 355.336C913.409 355.443 913.85 355.398 914.235 355.209L917.474 353.581C917.698 353.47 917.943 353.408 918.192 353.397C918.441 353.386 918.69 353.427 918.923 353.518L923.538 358.916C923.934 359.07 924.37 359.08 924.772 358.943C925.174 358.807 925.514 358.532 925.733 358.169L929.242 352.312C929.393 352.067 929.6 351.861 929.847 351.712C930.094 351.564 930.373 351.477 930.66 351.458C930.947 351.44 931.235 351.49 931.499 351.606C931.762 351.722 931.994 351.899 932.175 352.123L936.953 358.142C937.24 358.498 937.651 358.732 938.104 358.795C938.557 358.859 939.017 358.748 939.391 358.484L942.603 356.19C942.906 355.977 943.267 355.863 943.637 355.863C944.008 355.863 944.369 355.977 944.672 356.19L947.371 358.151C947.594 358.306 947.849 358.408 948.117 358.45C948.385 358.492 948.659 358.473 948.919 358.394C949.178 358.315 949.417 358.179 949.616 357.995C949.815 357.811 949.971 357.585 950.07 357.332L952.437 351.394C952.568 351.067 952.794 350.786 953.084 350.586C953.375 350.385 953.718 350.275 954.071 350.268C954.424 350.261 954.771 350.359 955.069 350.548C955.367 350.737 955.603 351.009 955.747 351.331L958.303 357.089C958.42 357.355 958.599 357.588 958.825 357.769C959.052 357.949 959.319 358.073 959.603 358.129C959.888 358.184 960.181 358.17 960.459 358.088C960.737 358.006 960.991 357.858 961.2 357.656L963.638 355.227C963.95 354.923 964.362 354.743 964.797 354.72C965.232 354.696 965.661 354.832 966.004 355.101L969.81 358.115C970.019 358.276 970.262 358.389 970.52 358.445C970.778 358.502 971.045 358.501 971.303 358.442C971.56 358.384 971.802 358.27 972.01 358.107C972.219 357.945 972.389 357.739 972.509 357.503L976.368 349.847C976.502 349.583 976.699 349.356 976.941 349.187C977.183 349.017 977.463 348.91 977.757 348.874C978.05 348.839 978.348 348.876 978.624 348.983C978.899 349.09 979.145 349.263 979.337 349.487L980.471 354.516L981.371 355.947L982.558 356.964C983.737 357.962 986.418 357.107 986.418 355.542L992.716 342.388C992.716 341.363 988.307 340.535 987.318 340.535H754.683C754.442 340.535 754.204 340.583 753.982 340.677C753.76 340.771 753.559 340.908 753.391 341.081C753.224 341.254 753.092 341.459 753.005 341.683C752.918 341.908 752.877 342.148 752.884 342.388V357.629C752.861 357.879 752.891 358.13 752.971 358.368C753.052 358.605 753.181 358.823 753.35 359.008C753.519 359.192 753.726 359.34 753.955 359.44C754.185 359.54 754.433 359.592 754.683 359.591Z" fill="#EDEDED"/>
<path d="M386.159 454.868C386.051 459.448 386.51 465.008 386.393 469.588L417.801 469.776C418.215 469.237 417.99 466.43 417.477 465.539C414.094 459.718 412.304 463.919 406.726 460.564C403.87 458.907 401.221 456.917 398.835 454.635C394.481 454.787 390.711 454.661 386.159 454.868Z" fill="#CEE7E0"/>
<path d="M387.391 469.597L416.838 469.776" stroke="#1D1D1B" stroke-width="2" stroke-linecap="round" stroke-linejoin="round"/>
<path d="M400.536 436.767L385.871 442.453L386.159 454.868L398.835 454.635L400.536 436.767Z" fill="#FCBD9D"/>
<path d="M354.282 454.779C354.174 459.349 354.633 464.909 354.525 469.489L385.925 469.687C386.339 469.138 386.114 466.331 385.601 465.44C382.218 459.619 380.428 463.83 374.858 460.465C371.999 458.814 369.349 456.823 366.968 454.536C362.578 454.689 358.835 454.563 354.282 454.779Z" fill="#CEE7E0"/>
<path d="M355.515 469.498L384.962 469.677" stroke="#1D1D1B" stroke-width="2" stroke-linecap="round" stroke-linejoin="round"/>
<path d="M367.859 437.486L354.004 442.354L354.282 454.778L366.968 454.536L367.859 437.486Z" fill="#FCBD9D"/>
<path d="M448.049 269.846C447.55 271.496 446.545 272.948 445.175 273.996C443.806 275.043 442.143 275.634 440.419 275.685L427.689 300.229C427.116 301.327 426.321 302.294 425.355 303.069C424.388 303.843 423.271 304.408 422.075 304.727C419.554 305.403 416.878 305.186 414.499 304.115C413.721 303.766 413.011 303.282 412.403 302.685L412.259 302.55C411.475 301.813 410.797 300.971 410.244 300.049L400.014 273.625L410.954 263.998L419.384 288.362L432.817 271.187C429.479 264.934 435.696 257.403 442.516 259.58C443.555 259.889 444.523 260.399 445.364 261.082C446.205 261.766 446.902 262.609 447.417 263.563C447.931 264.517 448.251 265.563 448.36 266.641C448.468 267.72 448.363 268.809 448.049 269.846Z" fill="#F2BFA6"/>
<path d="M436.875 267.003L446.888 245.374" stroke="#1D1D1B" stroke-width="3" stroke-miterlimit="10" stroke-linecap="round"/>
<path d="M361.804 274.165L355.884 301.398C354.52 301.604 353.221 302.121 352.088 302.909C350.956 303.697 350.02 304.734 349.352 305.942C348.805 306.956 348.471 308.072 348.373 309.22C348.274 310.368 348.413 311.524 348.78 312.617C349.147 313.709 349.735 314.715 350.506 315.571C351.278 316.427 352.217 317.115 353.266 317.593C355.386 318.646 357.83 318.848 360.094 318.155C362.358 317.462 364.271 315.928 365.439 313.868C366.15 312.562 366.494 311.087 366.434 309.601C366.374 308.115 365.912 306.673 365.097 305.429L373.806 278.492L387.193 256.414L373.536 249.729L361.804 274.165Z" fill="#F8BCA5"/>
<path d="M399.879 275.784C399.79 275.554 399.623 275.362 399.407 275.241C399.191 275.121 398.94 275.079 398.697 275.124C398.454 275.169 398.234 275.297 398.076 275.486C397.917 275.676 397.829 275.915 397.828 276.162L396.379 292.032C396.379 292.076 396.363 292.118 396.332 292.15C396.302 292.182 396.261 292.201 396.217 292.203L360.229 292.131V291.942L357.467 280.039C357.251 278.89 356.778 277.804 356.082 276.864C355.824 276.519 355.485 276.244 355.095 276.062C354.705 275.88 354.276 275.797 353.847 275.82C353.417 275.843 353 275.972 352.632 276.195C352.263 276.417 351.956 276.728 351.736 277.097L342.982 291.744C342.963 291.778 342.933 291.804 342.897 291.817C342.86 291.83 342.82 291.83 342.784 291.816L332.15 287.795C332.111 287.779 332.079 287.749 332.061 287.71C332.042 287.672 332.039 287.629 332.051 287.588L340.742 262.18C340.742 262.18 344.044 253.067 346.959 249.468C349.874 245.869 353.869 243.368 358.277 243.368H398.116C398.145 243.36 398.176 243.36 398.206 243.368L401.66 245.743C405.863 248.617 408.976 252.823 410.495 257.682L419.438 288.353C419.438 288.407 419.025 288.901 419.438 288.353L410.298 300.049L399.879 275.784Z" fill="#2A9998"/>
<path d="M348.389 352.303H379.285L369.145 445.332H352.249L349.352 373.581L348.389 352.303Z" fill="#575756"/>
<path d="M411.701 352.303L410.612 366.806L402.497 445.332H383.63L378.556 352.303H411.701Z" fill="#575756"/>
<path d="M343.576 253.202C343.576 259.742 348.776 262.873 355.173 262.873C357.791 262.765 360.375 262.23 362.821 261.29C365.932 263.369 369.554 264.558 373.293 264.727C375.185 264.737 377.047 264.25 378.691 263.314C383.819 263.467 389.937 262.828 394.445 262.828C403.829 262.828 411.44 256.899 411.44 249.576C411.44 245.401 408.966 241.658 405.142 239.247C405.414 237.289 405.55 235.314 405.547 233.336C405.547 225.446 403.514 218.725 400.662 216.098C400.752 215.423 400.806 214.748 400.851 214.056C402.836 211.781 403.982 208.895 404.099 205.877C404.099 200.317 400.383 195.747 394.202 195.225C392.39 193.243 390.19 191.654 387.739 190.558C385.287 189.462 382.636 188.883 379.951 188.855C368.866 188.855 359.789 198.662 359.051 211.078H358.997C353.401 211.078 348.884 222.594 348.884 234.137C348.876 236.072 349.006 238.005 349.271 239.922C345.839 243.52 343.817 248.234 343.576 253.202Z" fill="#1D1D1B"/>
<path d="M347.049 346.599L347.355 353.086C347.403 354.122 347.849 355.099 348.6 355.815C349.351 356.53 350.348 356.929 351.385 356.927H408.804C409.82 356.906 410.794 356.516 411.545 355.831C412.296 355.147 412.774 354.213 412.889 353.203C413.235 351.017 413.437 348.811 413.491 346.599C413.491 331.862 411.152 309.711 397.198 295.109H359.977C349.478 306.095 347.049 335.443 347.049 346.599Z" fill="#2A9998"/>
<path d="M384.053 246.238H345.825C339.897 246.238 335.092 251.043 335.092 256.971V316.198C335.092 322.126 339.897 326.932 345.825 326.932H384.053C389.981 326.932 394.787 322.126 394.787 316.198V256.971C394.787 251.043 389.981 246.238 384.053 246.238Z" fill="#CEE7E0" stroke="#CEE7E0" stroke-miterlimit="10"/>
<path d="M385.628 225.293H344.251C339.192 225.293 335.092 229.394 335.092 234.452V236.305C335.092 241.364 339.192 245.464 344.251 245.464H385.628C390.686 245.464 394.787 241.364 394.787 236.305V234.452C394.787 229.394 390.686 225.293 385.628 225.293Z" fill="#CEE7E0" stroke="#CEE7E0" stroke-miterlimit="10"/>
<path d="M332.105 287.759H335.092V318.744H332.105C331.348 318.744 330.598 318.595 329.898 318.305C329.198 318.016 328.563 317.591 328.027 317.055C327.491 316.52 327.067 315.884 326.777 315.184C326.487 314.485 326.338 313.735 326.338 312.977V293.526C326.338 292.769 326.487 292.019 326.777 291.319C327.067 290.619 327.491 289.984 328.027 289.448C328.563 288.913 329.198 288.488 329.898 288.198C330.598 287.908 331.348 287.759 332.105 287.759Z" fill="#CEE7E0" stroke="#CEE7E0" stroke-miterlimit="10"/>
<path d="M394.787 287.759H397.774C399.303 287.759 400.77 288.367 401.852 289.448C402.933 290.53 403.541 291.996 403.541 293.526V312.986C403.541 313.744 403.392 314.494 403.102 315.193C402.812 315.893 402.387 316.529 401.852 317.064C401.316 317.6 400.68 318.025 399.981 318.314C399.281 318.604 398.531 318.753 397.774 318.753H394.787V287.759Z" fill="#CEE7E0" stroke="#CEE7E0" stroke-miterlimit="10"/>
<path d="M370.234 437.522H351.376V445.332H370.234V437.522Z" fill="#C6C6C6" stroke="#B2B2B2" stroke-miterlimit="10"/>
<path d="M403.883 437.522H382.704V445.332H403.883V437.522Z" fill="#C6C6C6" stroke="#B2B2B2" stroke-miterlimit="10"/>
<path d="M380.032 249.306H341.804C335.876 249.306 331.07 254.111 331.07 260.039V319.266C331.07 325.194 335.876 330 341.804 330H380.032C385.96 330 390.765 325.194 390.765 319.266V260.039C390.765 254.111 385.96 249.306 380.032 249.306Z" fill="#57B999"/>
<path d="M380.913 227.443H340.922C335.481 227.443 331.07 231.854 331.07 237.295V237.763C331.07 243.204 335.481 247.614 340.922 247.614H380.913C386.354 247.614 390.765 243.204 390.765 237.763V237.295C390.765 231.854 386.354 227.443 380.913 227.443Z" fill="#57B999"/>
<path d="M329.478 289.909H329.685C330.055 289.909 330.409 290.056 330.671 290.318C330.932 290.579 331.079 290.934 331.079 291.304V319.509C331.079 319.879 330.932 320.234 330.671 320.495C330.409 320.757 330.055 320.904 329.685 320.904H329.478C327.569 320.904 325.738 320.145 324.388 318.796C323.039 317.446 322.28 315.615 322.28 313.706V297.062C322.28 295.153 323.039 293.322 324.388 291.972C325.738 290.622 327.569 289.864 329.478 289.864V289.909Z" fill="#57B999"/>
<path d="M392.16 289.909H392.367C394.275 289.909 396.106 290.667 397.456 292.017C398.806 293.367 399.564 295.198 399.564 297.107V313.787C399.564 315.696 398.806 317.527 397.456 318.877C396.106 320.226 394.275 320.985 392.367 320.985H392.16C391.79 320.985 391.435 320.838 391.174 320.576C390.912 320.315 390.765 319.96 390.765 319.59V291.295C390.767 290.926 390.915 290.574 391.177 290.314C391.438 290.055 391.791 289.909 392.16 289.909Z" fill="#57B999"/>
<path d="M373.977 258.897H373.806C371.803 258.897 370.18 260.52 370.18 262.522V316.108C370.18 318.111 371.803 319.734 373.806 319.734H373.977C375.979 319.734 377.603 318.111 377.603 316.108V262.522C377.603 260.52 375.979 258.897 373.977 258.897Z" fill="#CEE7E0"/>
<path d="M348.875 258.897H348.704C346.702 258.897 345.079 260.52 345.079 262.522V316.108C345.079 318.111 346.702 319.734 348.704 319.734H348.875C350.878 319.734 352.501 318.111 352.501 316.108V262.522C352.501 260.52 350.878 258.897 348.875 258.897Z" fill="#CEE7E0"/>
<path d="M382.587 293.526H336.621V305.123H382.587V293.526Z" fill="#57B999"/>
<path d="M194.802 385.565L217.879 325.879" stroke="#C6C6C6" stroke-width="2" stroke-miterlimit="10" stroke-linecap="round"/>
<path d="M176.349 377.819L196.08 326.788" stroke="#C6C6C6" stroke-width="2" stroke-miterlimit="10" stroke-linecap="round"/>
<path d="M192.724 325.879H219.49" stroke="#1D1D1B" stroke-width="3" stroke-miterlimit="10" stroke-linecap="round"/>
<path d="M207.767 404.405L187.623 456.524C186.944 458.395 185.639 459.973 183.928 460.99C182.217 462.007 180.207 462.4 178.239 462.102L139.318 456.02C137.993 455.807 136.782 455.142 135.89 454.14L135.431 453.573L124.698 440.401C125.566 441.333 126.723 441.944 127.982 442.138L166.894 448.229C168.863 448.529 170.875 448.137 172.588 447.12C174.301 446.103 175.608 444.523 176.287 442.651L196.413 390.522C196.494 390.324 196.557 390.144 196.62 389.946C197.081 388.467 197.211 386.905 196.999 385.37C196.788 383.835 196.24 382.366 195.396 381.066L205.059 392.924L206.858 395.093C207.718 396.469 208.247 398.027 208.405 399.642C208.563 401.257 208.344 402.888 207.767 404.405Z" fill="#F59D27" stroke="#F59D27" stroke-miterlimit="10"/>
<path d="M196.62 389.946C196.557 390.144 196.494 390.324 196.413 390.522L176.286 442.651C175.608 444.523 174.301 446.103 172.588 447.12C170.875 448.137 168.863 448.529 166.894 448.229L127.982 442.138C126.723 441.944 125.566 441.333 124.698 440.401C124.439 440.152 124.212 439.871 124.023 439.565C123.428 438.714 123.048 437.732 122.915 436.703C122.782 435.674 122.9 434.627 123.258 433.654L145.085 377.135C145.796 375.188 147.158 373.546 148.94 372.487C150.722 371.428 152.815 371.017 154.865 371.323L188.702 376.622C190.063 376.844 191.36 377.354 192.507 378.119C193.654 378.884 194.624 379.886 195.351 381.057C196.204 382.354 196.76 383.823 196.98 385.36C197.199 386.897 197.076 388.463 196.62 389.946Z" fill="#FABD6C" stroke="#F59D27" stroke-miterlimit="10"/>
<path d="M146.759 467.668C149.469 466.898 150.998 463.921 150.174 461.02C149.35 458.119 146.485 456.391 143.774 457.161C141.064 457.931 139.536 460.907 140.36 463.808C141.184 466.71 144.049 468.437 146.759 467.668Z" fill="#1D1D1B"/>
<path d="M172.341 471.669C175.051 470.9 176.58 467.923 175.756 465.022C174.931 462.121 172.066 460.393 169.356 461.163C166.646 461.933 165.117 464.909 165.941 467.81C166.766 470.712 169.631 472.439 172.341 471.669Z" fill="#1D1D1B"/>
<path d="M209.98 437.252C207.389 441.193 204.852 446.312 202.261 450.253L234.02 468.373C234.731 468.139 236.026 465.548 235.981 464.477C235.702 457.451 231.609 460.114 227.776 453.987C226.022 451.18 225.428 449.236 223.79 444.756C219.292 442.363 214.713 439.637 209.98 437.252Z" fill="#CEE7E0"/>
<path d="M203.268 450.793L233.048 467.779" stroke="#1D1D1B" stroke-width="2" stroke-linecap="round" stroke-linejoin="round"/>
<path d="M229.656 433.627L216.404 426.195L209.98 437.216L223.79 444.72L229.656 433.627Z" fill="#FCBD9D"/>
<path d="M278.555 454.347C278.438 458.449 278.861 463.344 278.852 467.617C278.852 467.807 278.889 467.996 278.962 468.172C279.035 468.347 279.142 468.507 279.276 468.641C279.411 468.776 279.57 468.883 279.746 468.955C279.922 469.028 280.11 469.066 280.3 469.066L314.651 469.246C314.847 469.246 315.042 469.206 315.223 469.13C315.404 469.053 315.567 468.941 315.704 468.8C315.841 468.659 315.948 468.492 316.019 468.309C316.09 468.126 316.123 467.93 316.117 467.734C316.109 466.799 315.894 465.877 315.488 465.035C311.493 459.214 309.388 463.425 302.811 460.06C299.689 458.519 296.745 456.642 294.03 454.464C293.759 454.255 293.427 454.144 293.085 454.149C288.164 454.257 283.737 454.149 278.555 454.347Z" fill="#CEE7E0"/>
<path d="M280.003 469.075L314.732 469.255" stroke="#1D1D1B" stroke-width="2" stroke-linecap="round" stroke-linejoin="round"/>
<path d="M293.607 441.904L278.231 442.264L278.555 454.356L293.607 454.113V441.904Z" fill="#FCBD9D"/>
<path d="M276.207 220.453H263.449C261.051 220.453 258.751 219.5 257.055 217.804C255.36 216.109 254.407 213.809 254.407 211.411V179.705H285.249V211.402C285.249 213.8 284.296 216.1 282.6 217.795C280.905 219.491 278.605 220.444 276.207 220.444V220.453Z" fill="#F8BCA5"/>
<path d="M276.144 220.453H263.449C262.259 220.455 261.081 220.223 259.981 219.769C258.882 219.315 257.882 218.648 257.041 217.807C256.199 216.967 255.532 215.968 255.077 214.869C254.622 213.77 254.388 212.591 254.389 211.402V205.257H285.186V211.429C285.186 213.827 284.233 216.127 282.537 217.822C280.842 219.518 278.542 220.471 276.144 220.471V220.453Z" fill="#1D1D1B"/>
<path d="M240.822 312.635C239.986 312.77 239.139 312.815 238.294 312.77C235.343 312.59 233.084 312.77 233.561 317.809C233.804 320.337 233.84 329.505 235.145 337.224C236.314 344.089 239.571 360.049 240.543 364.674C241.099 367.055 240.796 369.556 239.688 371.736L213.957 427.401C213.237 428.849 212.886 429.938 215.297 431.296L226.993 436.623C229.692 438.107 229.692 436.749 230.412 435.606L265.41 380.769C266.693 378.8 267.455 376.537 267.624 374.193L271.097 326.833C271.253 324.988 271.029 323.132 270.438 321.378C269.847 319.624 268.901 318.011 267.66 316.638C266.419 315.265 264.909 314.162 263.223 313.398C261.537 312.633 259.713 312.224 257.862 312.195H244.564C243.925 312.191 243.287 312.243 242.657 312.348L240.822 312.635Z" fill="#3C3C3B"/>
<path d="M300.076 363.261C300.694 366.397 300.861 369.606 300.571 372.789L295.703 445.719C295.674 446.113 295.498 446.483 295.21 446.754C294.922 447.026 294.542 447.179 294.147 447.185H278.132C277.919 447.182 277.71 447.136 277.515 447.049C277.321 446.963 277.146 446.839 277 446.683C276.855 446.528 276.743 446.345 276.67 446.145C276.597 445.945 276.565 445.733 276.576 445.521L274.839 390.99C275.093 382.703 273.708 374.448 270.764 366.698L267.894 359.168C265.024 351.628 258.762 344.089 255.892 336.549L254.209 332.618C253.399 330.593 252.842 328.884 252.482 327.678C251.591 324.621 251.098 321.461 251.015 318.277C251.007 317.264 251.212 316.262 251.618 315.335C251.905 314.633 252.347 314.005 252.911 313.499C253.475 312.992 254.147 312.62 254.875 312.41C256.581 312.226 258.296 312.133 260.012 312.132H284.016C284.916 312.132 284.871 312.357 285.609 312.761C286.895 313.472 286.886 314.813 287.237 316.27L300.076 363.261Z" fill="#575756"/>
<path d="M254.47 207.119H270.665V226.463C270.665 227.723 270.164 228.931 269.273 229.822C268.382 230.713 267.174 231.213 265.914 231.213H259.185C257.925 231.213 256.716 230.713 255.825 229.822C254.935 228.931 254.434 227.723 254.434 226.463V207.119H254.47Z" fill="#F8BCA5"/>
<path d="M281.533 189.566C286.547 189.566 290.611 185.566 290.611 180.632C290.611 175.698 286.547 171.698 281.533 171.698C276.519 171.698 272.455 175.698 272.455 180.632C272.455 185.566 276.519 189.566 281.533 189.566Z" fill="#1D1D1B"/>
<path d="M277.817 181.109C277.817 183.385 283.116 188.019 278.996 189.152C274.875 190.286 262.747 189.359 259.158 189.359C251.96 189.359 250.448 185.67 250.448 181.109C250.448 178.833 252.248 176.763 254.947 175.27C257.646 173.776 262.666 172.85 266.247 172.85C269.203 172.734 272.12 173.549 274.587 175.18C275.565 175.833 276.37 176.714 276.932 177.747C277.495 178.779 277.799 179.933 277.817 181.109Z" fill="#1D1D1B"/>
<path d="M249.477 196.638C249.477 204.987 255.01 211.753 261.83 211.753C268.649 211.753 274.173 204.987 274.173 196.638C274.173 191.635 275.262 185.688 272.212 182.935C270.161 181.091 264.565 181.514 261.83 181.514C255.01 181.514 249.477 188.288 249.477 196.638Z" fill="#1D1D1B"/>
<path d="M272.176 207.371H270.719C269.776 207.371 268.872 206.997 268.206 206.33C267.539 205.664 267.165 204.76 267.165 203.817V200.785C267.165 199.843 267.539 198.939 268.206 198.272C268.872 197.606 269.776 197.231 270.719 197.231H273.049C273.354 197.231 273.647 197.353 273.863 197.569C274.079 197.785 274.2 198.078 274.2 198.383V205.338C274.2 205.875 273.987 206.389 273.608 206.769C273.228 207.149 272.713 207.362 272.176 207.362V207.371Z" fill="#F8BCA5"/>
<path d="M291.304 291.196L301.839 319.176C299.428 321.282 298.87 324.377 299.14 327.786C299.635 333.553 303.863 337.062 309.711 336.585C315.559 336.109 319.122 331.961 318.636 326.203C318.477 324.397 317.851 322.664 316.819 321.174C315.788 319.683 314.386 318.486 312.752 317.701L304.655 284.493L302.712 253.624L285.618 255.019L289.342 283.404C289.696 286.068 290.354 288.682 291.304 291.196Z" fill="#F8BCA5"/>
<path d="M212.103 284.952L204.906 314.156C201.757 314.417 199.679 316.135 197.996 319.077C195.153 324.062 196.062 329.811 201.082 332.969C206.102 336.127 211.609 334.633 214.461 329.649C215.342 327.894 215.801 325.958 215.801 323.994C215.801 322.031 215.342 320.094 214.461 318.34L226.723 287.678L243.251 261.866L227.803 252.176L214.856 277.583C213.658 279.925 212.734 282.398 212.103 284.952Z" fill="#F8BCA5"/>
<path d="M275.847 224.816C275.847 224.816 282.019 225.491 283.809 226.364C293.706 231.204 305.231 245.968 305.231 261.992V269.846C305.231 271.978 305.231 273.706 303.198 273.706H290.089C288.029 273.706 287.21 274.605 287.21 276.72L288.056 317.737C288.064 318.235 287.974 318.731 287.791 319.195C287.608 319.658 287.335 320.082 286.988 320.44C286.642 320.799 286.228 321.085 285.77 321.284C285.313 321.482 284.821 321.588 284.322 321.597H237.295C236.3 321.58 235.352 321.174 234.654 320.466C233.956 319.757 233.563 318.803 233.561 317.809L232.922 270.125H220.327C218.275 270.125 217.448 268.397 217.448 266.265C217.451 259.886 218.768 253.577 221.315 247.729C223.863 241.881 227.587 236.621 232.257 232.275C234.894 229.767 237.935 227.723 241.254 226.229C243.327 225.337 245.548 224.836 247.803 224.753" fill="#57B999"/>
<path d="M232.383 255.28V269.558" stroke="#217978" stroke-linecap="round" stroke-linejoin="round"/>
<path d="M246.094 224.537C246.094 224.537 243.845 243.206 251.492 274.353C257.457 298.735 264.403 305.591 264.403 305.591" stroke="#575756" stroke-width="2.5" stroke-miterlimit="10"/>
<path d="M264.358 305.591C264.358 305.591 282.064 314.435 287.984 314.309" stroke="#575756" stroke-width="2.5" stroke-miterlimit="10"/>
<path d="M263.436 318.562L278.004 322.657C280.008 323.22 282.09 322.052 282.653 320.048L284.35 314.011C284.914 312.006 283.746 309.925 281.741 309.361L267.173 305.266C265.169 304.703 263.087 305.871 262.524 307.875L260.827 313.912C260.263 315.917 261.432 317.998 263.436 318.562Z" fill="#878787" stroke="#878787" stroke-miterlimit="10"/>
<path d="M273.175 318.636C276.931 318.636 279.977 315.591 279.977 311.835C279.977 308.078 276.931 305.033 273.175 305.033C269.418 305.033 266.373 308.078 266.373 311.835C266.373 315.591 269.418 318.636 273.175 318.636Z" fill="#CEE7E0" stroke="#3C3C3B" stroke-miterlimit="10"/>
<path d="M785.12 197.186L786.335 199.661C786.351 199.695 786.377 199.725 786.408 199.747C786.44 199.769 786.476 199.783 786.515 199.787L789.214 200.182C789.257 200.19 789.297 200.209 789.33 200.238C789.363 200.266 789.388 200.303 789.401 200.345C789.415 200.386 789.418 200.431 789.408 200.473C789.399 200.516 789.378 200.555 789.349 200.587L787.369 202.513C787.342 202.539 787.322 202.572 787.311 202.608C787.3 202.644 787.299 202.683 787.306 202.72L787.774 205.419C787.783 205.462 787.779 205.508 787.763 205.549C787.747 205.591 787.72 205.627 787.684 205.654C787.648 205.68 787.605 205.696 787.56 205.699C787.516 205.702 787.471 205.692 787.432 205.671L784.985 204.384C784.952 204.366 784.915 204.356 784.877 204.356C784.839 204.356 784.802 204.366 784.769 204.384L782.331 205.671C782.292 205.692 782.247 205.702 782.203 205.699C782.158 205.696 782.115 205.68 782.079 205.654C782.044 205.627 782.016 205.591 782 205.549C781.984 205.508 781.98 205.462 781.989 205.419L782.448 202.72C782.456 202.683 782.454 202.644 782.443 202.608C782.432 202.572 782.412 202.539 782.385 202.513L780.406 200.587C780.376 200.555 780.355 200.516 780.346 200.473C780.337 200.431 780.339 200.386 780.353 200.345C780.367 200.303 780.391 200.266 780.424 200.238C780.457 200.209 780.498 200.19 780.541 200.182L783.24 199.787C783.278 199.783 783.314 199.769 783.346 199.747C783.377 199.725 783.403 199.695 783.42 199.661L784.643 197.186C784.643 197.123 784.668 197.063 784.713 197.018C784.758 196.973 784.818 196.948 784.882 196.948C784.945 196.948 785.005 196.973 785.05 197.018C785.095 197.063 785.12 197.123 785.12 197.186Z" fill="#DADADA"/>
<path d="M785.12 208.99L786.335 211.429C786.353 211.462 786.378 211.491 786.409 211.513C786.441 211.535 786.477 211.549 786.515 211.555L789.214 211.95C789.257 211.958 789.297 211.977 789.33 212.006C789.363 212.034 789.388 212.071 789.401 212.113C789.415 212.154 789.418 212.199 789.408 212.241C789.399 212.284 789.378 212.323 789.349 212.355L787.369 214.281C787.341 214.307 787.321 214.339 787.31 214.376C787.299 214.412 787.298 214.451 787.306 214.488L787.774 217.187C787.78 217.23 787.774 217.273 787.757 217.313C787.739 217.353 787.712 217.388 787.677 217.413C787.642 217.439 787.601 217.455 787.558 217.459C787.515 217.464 787.472 217.457 787.432 217.439L784.985 216.152C784.952 216.134 784.915 216.124 784.877 216.124C784.839 216.124 784.802 216.134 784.769 216.152L782.331 217.439C782.292 217.46 782.247 217.47 782.203 217.467C782.158 217.464 782.115 217.449 782.079 217.422C782.044 217.396 782.016 217.359 782 217.318C781.984 217.276 781.98 217.23 781.989 217.187L782.448 214.488C782.457 214.451 782.455 214.412 782.444 214.376C782.433 214.339 782.413 214.307 782.385 214.281L780.406 212.355C780.376 212.323 780.355 212.284 780.346 212.241C780.337 212.199 780.339 212.154 780.353 212.113C780.367 212.071 780.391 212.034 780.424 212.006C780.457 211.977 780.498 211.958 780.541 211.95L783.24 211.555C783.277 211.549 783.313 211.535 783.345 211.513C783.376 211.491 783.402 211.462 783.42 211.429L784.643 208.954C784.648 208.891 784.678 208.833 784.726 208.791C784.774 208.75 784.836 208.729 784.9 208.734C784.963 208.739 785.022 208.769 785.063 208.817C785.104 208.865 785.125 208.927 785.12 208.99Z" fill="#DADADA"/>
<path d="M785.12 220.786L786.335 223.26C786.352 223.295 786.377 223.325 786.409 223.348C786.44 223.372 786.476 223.388 786.515 223.395L789.214 223.791C789.257 223.796 789.297 223.814 789.331 223.842C789.364 223.869 789.389 223.906 789.403 223.947C789.417 223.988 789.42 224.032 789.41 224.074C789.4 224.117 789.379 224.155 789.349 224.186L787.369 226.112C787.341 226.14 787.321 226.174 787.31 226.212C787.299 226.249 787.298 226.289 787.306 226.328L787.774 229.027C787.781 229.07 787.776 229.114 787.759 229.154C787.742 229.194 787.714 229.229 787.679 229.254C787.643 229.28 787.601 229.295 787.558 229.297C787.514 229.3 787.471 229.29 787.432 229.27L784.985 227.992C784.952 227.974 784.915 227.965 784.877 227.965C784.839 227.965 784.802 227.974 784.769 227.992L782.331 229.27C782.292 229.29 782.249 229.3 782.206 229.297C782.162 229.295 782.12 229.28 782.085 229.254C782.049 229.229 782.021 229.194 782.004 229.154C781.987 229.114 781.982 229.07 781.989 229.027L782.448 226.328C782.456 226.289 782.455 226.249 782.444 226.212C782.433 226.174 782.413 226.14 782.385 226.112L780.406 224.186C780.375 224.155 780.354 224.117 780.344 224.074C780.335 224.032 780.337 223.988 780.351 223.947C780.365 223.906 780.39 223.869 780.423 223.842C780.457 223.814 780.498 223.796 780.541 223.791L783.24 223.395C783.278 223.388 783.314 223.372 783.345 223.348C783.377 223.325 783.402 223.295 783.42 223.26L784.643 220.786C784.643 220.722 784.668 220.662 784.713 220.617C784.758 220.572 784.818 220.547 784.882 220.547C784.945 220.547 785.005 220.572 785.05 220.617C785.095 220.662 785.12 220.722 785.12 220.786Z" fill="#DADADA"/>
<path d="M785.12 232.589L786.335 235.064C786.351 235.098 786.377 235.128 786.408 235.15C786.44 235.172 786.476 235.186 786.515 235.19L789.214 235.585C789.257 235.593 789.297 235.612 789.33 235.641C789.363 235.669 789.388 235.706 789.401 235.748C789.415 235.789 789.418 235.834 789.408 235.876C789.399 235.919 789.378 235.958 789.349 235.99L787.369 237.916C787.342 237.942 787.322 237.975 787.311 238.011C787.3 238.047 787.299 238.086 787.306 238.123L787.774 240.822C787.781 240.865 787.776 240.909 787.759 240.949C787.742 240.989 787.714 241.024 787.679 241.049C787.643 241.075 787.601 241.089 787.558 241.092C787.514 241.095 787.471 241.085 787.432 241.065L784.985 239.787C784.953 239.765 784.916 239.753 784.877 239.753C784.839 239.753 784.801 239.765 784.769 239.787L782.358 241.119C782.32 241.139 782.276 241.149 782.233 241.146C782.189 241.143 782.147 241.129 782.112 241.103C782.076 241.078 782.048 241.043 782.031 241.003C782.014 240.963 782.009 240.919 782.016 240.876L782.475 238.177C782.483 238.14 782.481 238.101 782.47 238.065C782.459 238.029 782.439 237.996 782.412 237.97L780.433 236.044C780.403 236.012 780.382 235.973 780.373 235.93C780.364 235.888 780.366 235.843 780.38 235.802C780.394 235.76 780.418 235.723 780.451 235.695C780.484 235.666 780.525 235.647 780.568 235.639L783.267 235.244C783.305 235.24 783.342 235.226 783.373 235.204C783.405 235.182 783.43 235.152 783.447 235.118L784.67 232.643C784.677 232.592 784.701 232.544 784.738 232.508C784.775 232.471 784.823 232.448 784.874 232.442C784.926 232.436 784.978 232.447 785.022 232.474C785.067 232.5 785.101 232.541 785.12 232.589Z" fill="#DADADA"/>
<path d="M1154.67 318.618V311.628" stroke="#DADADA" stroke-width="4" stroke-miterlimit="10"/>
<path d="M646.846 286.247V276.558" stroke="#EDEDED" stroke-width="4" stroke-miterlimit="10"/>
<path d="M1098.18 325.222H1060.08V313.994C1060.08 311.492 1060.57 309.015 1061.53 306.703C1062.48 304.392 1063.89 302.292 1065.66 300.523C1067.43 298.754 1069.53 297.351 1071.84 296.395C1074.15 295.438 1076.63 294.946 1079.13 294.948C1084.18 294.948 1089.03 296.954 1092.6 300.526C1096.17 304.098 1098.18 308.943 1098.18 313.994V325.222Z" fill="white"/>
<path d="M1052.09 337.233V281.848" stroke="#F6F6F6" stroke-width="8" stroke-miterlimit="10"/>
<path d="M247.31 223.632L244.45 224.033L244.604 225.129L247.464 224.728L247.31 223.632Z" fill="#F6F6F6"/>
<path d="M1098.18 325.222H1024.79V346.599H1098.18V325.222Z" fill="#EDEDED"/>
</g>
<defs>
<clipPath id="clip0_1_4">
<rect width="1440" height="539.818" fill="white"/>
</clipPath>
</defs>
</svg>
