<svg width="453" height="291" viewBox="0 0 453 291" fill="none" xmlns="http://www.w3.org/2000/svg">
<path d="M411.634 66.0123V243.553C411.637 244.926 411.249 246.271 410.516 247.431C409.784 248.592 408.736 249.521 407.496 250.109C407.332 250.19 407.163 250.263 406.99 250.325C406.167 250.638 405.292 250.793 404.411 250.785H79.8901C78.8942 250.792 77.9077 250.592 76.9936 250.196C75.7097 249.628 74.6186 248.699 73.853 247.522C73.0874 246.345 72.6802 244.971 72.681 243.567V66.0123H411.634Z" fill="#F5F5F5" stroke="#1D1D1B" stroke-width="4" stroke-miterlimit="10"/>
<path d="M79.8074 29.8384H404.471C406.371 29.8384 408.193 30.5931 409.536 31.9364C410.879 33.2798 411.634 35.1017 411.634 37.0015V65.9019H72.6397V37.0015C72.6397 36.0604 72.8251 35.1286 73.1854 34.2592C73.5457 33.3899 74.0737 32.6 74.7393 31.9348C75.405 31.2696 76.1952 30.7421 77.0648 30.3823C77.9344 30.0226 78.8663 29.8378 79.8074 29.8384Z" fill="#56B99A" stroke="#1D1D1B" stroke-width="4" stroke-miterlimit="10"/>
<path d="M384.743 42.5921L395.303 53.1482" stroke="#1D1D1B" stroke-width="4" stroke-linecap="round" stroke-linejoin="round"/>
<path d="M384.743 53.1482L395.303 42.5921" stroke="#1D1D1B" stroke-width="4" stroke-linecap="round" stroke-linejoin="round"/>
<path d="M372.55 42.5921H362.785C362.503 42.5921 362.274 42.8206 362.274 43.1025V52.8678C362.274 53.1496 362.503 53.3781 362.785 53.3781H372.55C372.832 53.3781 373.06 53.1496 373.06 52.8678V43.1025C373.06 42.8206 372.832 42.5921 372.55 42.5921Z" stroke="#1D1D1B" stroke-width="4" stroke-linecap="round" stroke-linejoin="round"/>
<path d="M351.199 53.3735H339.939" stroke="#1D1D1B" stroke-width="4" stroke-linecap="round" stroke-linejoin="round"/>
<path d="M115.19 52.2057V53.8011H143.7V52.2057H115.19Z" fill="black"/>
<path d="M92.7496 52.2057V53.8011H101.453V52.2057H92.7496Z" fill="black"/>
<path d="M105.935 47.7231H107.531V42.468H105.935V47.7231Z" fill="black"/>
<path d="M145.562 52.9459H147.158V49.346H145.562V52.9459Z" fill="black"/>
<path d="M119.659 57.7872H121.255V47.7277H119.659V57.7872Z" fill="black"/>
<path d="M106.735 43.268C107.175 43.268 107.531 42.9119 107.531 42.4726C107.531 42.0334 107.175 41.6772 106.735 41.6772C106.296 41.6772 105.94 42.0334 105.94 42.4726C105.94 42.9119 106.296 43.268 106.735 43.268Z" fill="black"/>
<path d="M143.7 53.8011C144.139 53.8011 144.495 53.445 144.495 53.0057C144.495 52.5664 144.139 52.2103 143.7 52.2103C143.261 52.2103 142.905 52.5664 142.905 53.0057C142.905 53.445 143.261 53.8011 143.7 53.8011Z" fill="black"/>
<path d="M120.455 58.5826C120.894 58.5826 121.25 58.2265 121.25 57.7872C121.25 57.3479 120.894 56.9918 120.455 56.9918C120.016 56.9918 119.659 57.3479 119.659 57.7872C119.659 58.2265 120.016 58.5826 120.455 58.5826Z" fill="black"/>
<path d="M141.08 44.8588C141.519 44.8588 141.875 44.5027 141.875 44.0634C141.875 43.6241 141.519 43.268 141.08 43.268C140.64 43.268 140.284 43.6241 140.284 44.0634C140.284 44.5027 140.64 44.8588 141.08 44.8588Z" fill="black"/>
<path d="M146.358 39.5807C146.797 39.5807 147.153 39.2246 147.153 38.7853C147.153 38.3461 146.797 37.99 146.358 37.99C145.918 37.99 145.562 38.3461 145.562 38.7853C145.562 39.2246 145.918 39.5807 146.358 39.5807Z" fill="black"/>
<path d="M146.358 38.7853C146.358 39.4784 146.221 40.1648 145.956 40.8051C145.691 41.4455 145.302 42.0273 144.812 42.5174C144.322 43.0076 143.74 43.3963 143.099 43.6616C142.459 43.9268 141.773 44.0633 141.08 44.0633" stroke="black" stroke-width="3.47" stroke-miterlimit="10"/>
<path d="M146.358 53.8011C146.797 53.8011 147.153 53.445 147.153 53.0057C147.153 52.5664 146.797 52.2103 146.358 52.2103C145.918 52.2103 145.562 52.5664 145.562 53.0057C145.562 53.445 145.918 53.8011 146.358 53.8011Z" fill="black"/>
<path d="M146.358 49.346C146.358 48.6525 146.222 47.9657 145.957 47.3248C145.692 46.6839 145.303 46.1015 144.813 45.6109C144.323 45.1203 143.741 44.7311 143.1 44.4656C142.46 44.2 141.773 44.0634 141.08 44.0634" stroke="black" stroke-width="3.47" stroke-miterlimit="10"/>
<path d="M92.7495 43.268C93.6334 43.268 94.4974 43.5301 95.2323 44.0211C95.9672 44.5122 96.54 45.2101 96.8782 46.0267C97.2165 46.8433 97.305 47.7418 97.1325 48.6087C96.9601 49.4755 96.5345 50.2718 95.9095 50.8968C95.2845 51.5218 94.4882 51.9474 93.6214 52.1198C92.7545 52.2923 91.856 52.2038 91.0394 51.8655C90.2228 51.5273 89.5249 50.9545 89.0338 50.2196C88.5428 49.4847 88.2807 48.6207 88.2807 47.7368C88.2819 46.552 88.7531 45.416 89.5909 44.5782C90.4287 43.7404 91.5647 43.2692 92.7495 43.268ZM92.7495 41.6726C91.5501 41.6726 90.3777 42.0283 89.3804 42.6946C88.3832 43.361 87.6059 44.3081 87.1469 45.4162C86.6879 46.5242 86.5678 47.7436 86.8018 48.9199C87.0358 50.0962 87.6134 51.1768 88.4615 52.0249C89.3096 52.873 90.3901 53.4505 91.5665 53.6845C92.7428 53.9185 93.9621 53.7984 95.0702 53.3394C96.1783 52.8805 97.1254 52.1032 97.7918 51.1059C98.4581 50.1087 98.8138 48.9362 98.8138 47.7368C98.8125 46.1289 98.1732 44.5871 97.0362 43.4501C95.8992 42.3131 94.3575 41.6738 92.7495 41.6726Z" fill="black"/>
<path d="M115.19 43.268C116.074 43.268 116.938 43.5301 117.673 44.0211C118.408 44.5122 118.981 45.2101 119.319 46.0267C119.657 46.8433 119.746 47.7418 119.573 48.6087C119.401 49.4755 118.975 50.2718 118.35 50.8968C117.725 51.5218 116.929 51.9474 116.062 52.1198C115.195 52.2923 114.297 52.2038 113.48 51.8655C112.664 51.5273 111.966 50.9545 111.475 50.2196C110.984 49.4847 110.722 48.6207 110.722 47.7368C110.723 46.552 111.194 45.416 112.032 44.5782C112.87 43.7404 114.006 43.2692 115.19 43.268ZM115.19 41.6726C113.991 41.6726 112.819 42.0283 111.821 42.6946C110.824 43.361 110.047 44.3081 109.588 45.4162C109.129 46.5242 109.009 47.7436 109.243 48.9199C109.477 50.0962 110.054 51.1768 110.902 52.0249C111.75 52.873 112.831 53.4505 114.007 53.6845C115.184 53.9185 116.403 53.7984 117.511 53.3394C118.619 52.8805 119.566 52.1032 120.233 51.1059C120.899 50.1087 121.255 48.9362 121.255 47.7368C121.255 46.1285 120.616 44.586 119.478 43.4488C118.341 42.3115 116.799 41.6726 115.19 41.6726Z" fill="black"/>
<path d="M106.735 47.7231C106.736 48.4166 106.6 49.1034 106.335 49.7443C106.07 50.3852 105.681 50.9676 105.191 51.4582C104.701 51.9488 104.119 52.3379 103.478 52.6035C102.838 52.869 102.151 53.0057 101.457 53.0057" stroke="black" stroke-width="3.47" stroke-miterlimit="10"/>
<path d="M121.255 50.9138H118.335V53.8057H121.255V50.9138Z" fill="black"/>
<path d="M428.792 200.538H52.7136C41.493 200.538 32.3969 209.634 32.3969 220.855V270.683C32.3969 281.904 41.493 291 52.7136 291H428.792C440.013 291 449.109 281.904 449.109 270.683V220.855C449.109 209.634 440.013 200.538 428.792 200.538Z" fill="#DADADA"/>
<path d="M72.1064 175.89C77.2965 175.89 81.5039 171.849 81.5039 166.865C81.5039 161.881 77.2965 157.84 72.1064 157.84C66.9163 157.84 62.7089 161.881 62.7089 166.865C62.7089 171.849 66.9163 175.89 72.1064 175.89Z" fill="#56B99A" stroke="#1D1D1B" stroke-width="4.07" stroke-linecap="round" stroke-linejoin="round"/>
<path d="M53.316 198.749C53.316 188.782 61.725 180.699 72.1063 180.699C82.4877 180.699 90.8967 188.782 90.8967 198.749" fill="#56B99A"/>
<path d="M53.316 198.749C53.316 188.782 61.725 180.699 72.1063 180.699C82.4877 180.699 90.8967 188.782 90.8967 198.749" stroke="#1D1D1B" stroke-width="4.07" stroke-linecap="round" stroke-linejoin="round"/>
<path d="M48.4885 206.896C58.8698 206.896 67.2788 214.979 67.2788 224.946C67.2788 234.914 58.8882 242.992 48.4885 242.992" stroke="#1D1D1B" stroke-width="4.07" stroke-linecap="round" stroke-linejoin="round"/>
<path d="M96.3494 242.992C85.968 242.992 77.559 234.914 77.559 224.946C77.559 214.979 85.968 206.896 96.3494 206.896" stroke="#1D1D1B" stroke-width="4.07" stroke-linecap="round" stroke-linejoin="round"/>
<path d="M53.316 199.899H90.8967" stroke="#1D1D1B" stroke-width="4.07" stroke-linecap="round" stroke-linejoin="round"/>
<path d="M97.5679 199.899H46.6495C45.4155 199.899 44.4151 200.899 44.4151 202.133V204.611C44.4151 205.845 45.4155 206.846 46.6495 206.846H97.5679C98.8019 206.846 99.8023 205.845 99.8023 204.611V202.133C99.8023 200.899 98.8019 199.899 97.5679 199.899Z" stroke="#1D1D1B" stroke-width="4.07" stroke-linecap="round" stroke-linejoin="round"/>
<path d="M97.5679 243.213H46.6495C45.4155 243.213 44.4151 244.213 44.4151 245.447V247.925C44.4151 249.159 45.4155 250.16 46.6495 250.16H97.5679C98.8019 250.16 99.8023 249.159 99.8023 247.925V245.447C99.8023 244.213 98.8019 243.213 97.5679 243.213Z" stroke="#1D1D1B" stroke-width="4.07" stroke-linecap="round" stroke-linejoin="round"/>
<path d="M200.545 237.636L267.109 170.12L333.668 237.636" stroke="#1D1D1B" stroke-width="2.92" stroke-linecap="round" stroke-linejoin="round"/>
<path d="M334.629 237.636H199.584C198.032 237.636 196.775 238.893 196.775 240.445V244.592C196.775 246.143 198.032 247.401 199.584 247.401H334.629C336.18 247.401 337.438 246.143 337.438 244.592V240.445C337.438 238.893 336.18 237.636 334.629 237.636Z" fill="#DADADA" stroke="#1D1D1B" stroke-width="3.89" stroke-miterlimit="10"/>
<path d="M267.109 227.227C298.648 227.227 324.215 201.659 324.215 170.12C324.215 138.581 298.648 113.013 267.109 113.013C235.569 113.013 210.002 138.581 210.002 170.12C210.002 201.659 235.569 227.227 267.109 227.227Z" stroke="#1D1D1B" stroke-width="2.92" stroke-miterlimit="10"/>
<path d="M210.002 179.577C215.225 179.577 219.459 175.343 219.459 170.12C219.459 164.897 215.225 160.663 210.002 160.663C204.779 160.663 200.545 164.897 200.545 170.12C200.545 175.343 204.779 179.577 210.002 179.577Z" fill="#56B99A" stroke="#1D1D1B" stroke-width="3.89" stroke-miterlimit="10"/>
<path d="M324.211 179.577C329.434 179.577 333.668 175.343 333.668 170.12C333.668 164.897 329.434 160.663 324.211 160.663C318.988 160.663 314.754 164.897 314.754 170.12C314.754 175.343 318.988 179.577 324.211 179.577Z" fill="#56B99A" stroke="#1D1D1B" stroke-width="3.89" stroke-miterlimit="10"/>
<path d="M267.109 178.143C272.332 178.143 276.566 173.909 276.566 168.686C276.566 163.463 272.332 159.228 267.109 159.228C261.886 159.228 257.651 163.463 257.651 168.686C257.651 173.909 261.886 178.143 267.109 178.143Z" fill="#C6C6C6" stroke="#1D1D1B" stroke-width="3.89" stroke-miterlimit="10"/>
<path d="M267.109 122.471C272.332 122.471 276.566 118.237 276.566 113.013C276.566 107.79 272.332 103.556 267.109 103.556C261.886 103.556 257.651 107.79 257.651 113.013C257.651 118.237 261.886 122.471 267.109 122.471Z" fill="#56B99A" stroke="#1D1D1B" stroke-width="3.89" stroke-miterlimit="10"/>
<path d="M267.109 236.684C272.332 236.684 276.566 232.45 276.566 227.227C276.566 222.004 272.332 217.77 267.109 217.77C261.886 217.77 257.651 222.004 257.651 227.227C257.651 232.45 261.886 236.684 267.109 236.684Z" fill="#56B99A" stroke="#1D1D1B" stroke-width="3.89" stroke-miterlimit="10"/>
<path d="M306.983 139.698C312.206 139.698 316.441 135.464 316.441 130.241C316.441 125.018 312.206 120.783 306.983 120.783C301.76 120.783 297.526 125.018 297.526 130.241C297.526 135.464 301.76 139.698 306.983 139.698Z" fill="#56B99A" stroke="#1D1D1B" stroke-width="3.89" stroke-miterlimit="10"/>
<path d="M226.241 139.698C231.464 139.698 235.698 135.464 235.698 130.241C235.698 125.018 231.464 120.783 226.241 120.783C221.018 120.783 216.784 125.018 216.784 130.241C216.784 135.464 221.018 139.698 226.241 139.698Z" fill="#56B99A" stroke="#1D1D1B" stroke-width="3.89" stroke-miterlimit="10"/>
<path d="M307.48 219.457C312.703 219.457 316.937 215.223 316.937 210C316.937 204.777 312.703 200.542 307.48 200.542C302.257 200.542 298.023 204.777 298.023 210C298.023 215.223 302.257 219.457 307.48 219.457Z" fill="#56B99A" stroke="#1D1D1B" stroke-width="3.89" stroke-miterlimit="10"/>
<path d="M226.732 219.457C231.956 219.457 236.19 215.223 236.19 210C236.19 204.777 231.956 200.542 226.732 200.542C221.509 200.542 217.275 204.777 217.275 210C217.275 215.223 221.509 219.457 226.732 219.457Z" fill="#56B99A" stroke="#1D1D1B" stroke-width="3.89" stroke-miterlimit="10"/>
<path d="M345.411 124.02H375.644" stroke="#1D1D1B" stroke-width="3" stroke-linecap="round" stroke-linejoin="round"/>
<path d="M412.25 124.02H442.484" stroke="#1D1D1B" stroke-width="3" stroke-linecap="round" stroke-linejoin="round"/>
<path d="M360.32 124.02C360.636 121.25 361.609 118.595 363.158 116.276C364.707 113.957 366.786 112.041 369.224 110.688C371.662 109.335 374.388 108.583 377.175 108.494C379.962 108.406 382.73 108.985 385.248 110.181C387.836 104.985 392.103 100.815 397.359 98.3488C402.614 95.8827 408.549 95.2651 414.199 96.5961C419.85 97.9272 424.885 101.129 428.487 105.681C432.089 110.234 434.047 115.87 434.043 121.675C434.047 122.455 434.011 123.235 433.932 124.011" stroke="#1D1D1B" stroke-width="3" stroke-linecap="round" stroke-linejoin="round"/>
<path d="M29.2568 47.6679H50.9345" stroke="#1D1D1B" stroke-width="3" stroke-linecap="round" stroke-linejoin="round"/>
<path d="M41.5232 47.6679C41.4864 39.3233 35.3118 32.5648 27.6844 32.5648C22.2639 32.5648 17.5697 35.9854 15.3077 40.9692C14.056 40.3098 12.6628 39.9642 11.248 39.9623C6.86654 39.9623 3.18387 43.2358 2.13562 47.6679" stroke="#1D1D1B" stroke-width="3" stroke-linecap="round" stroke-linejoin="round"/>
<path d="M90.0094 17.5996H72.2581" stroke="#1D1D1B" stroke-width="3" stroke-linecap="round" stroke-linejoin="round"/>
<path d="M124.735 17.5996C124.167 15.3588 122.874 13.3683 121.059 11.9374C119.243 10.5066 117.005 9.71555 114.694 9.68717C113.14 9.6881 111.608 10.0468 110.216 10.7354C108.984 8.13696 107.044 5.93879 104.619 4.39354C102.193 2.84828 99.3814 2.01866 96.5057 2C88.1059 2 81.2831 8.97455 81.1912 17.6042" stroke="#1D1D1B" stroke-width="3" stroke-linecap="round" stroke-linejoin="round"/>
<path d="M411.882 237.392C425.502 237.392 436.544 226.351 436.544 212.731C436.544 199.11 425.502 188.069 411.882 188.069C398.262 188.069 387.221 199.11 387.221 212.731C387.221 226.351 398.262 237.392 411.882 237.392Z" fill="#56B99A" stroke="#1D1D1B" stroke-width="3" stroke-linecap="round" stroke-linejoin="round"/>
<path d="M411.671 253.544V200.239" stroke="#1D1D1B" stroke-width="3" stroke-linecap="round" stroke-linejoin="round"/>
<path d="M411.671 237.392L430.029 217.507" stroke="#1D1D1B" stroke-width="3" stroke-linecap="round" stroke-linejoin="round"/>
<path d="M411.671 219.356L398.462 206.142" stroke="#1D1D1B" stroke-width="3" stroke-linecap="round" stroke-linejoin="round"/>
<path d="M387.221 237.392C400.841 237.392 411.882 226.351 411.882 212.731C411.882 199.11 400.841 188.069 387.221 188.069C373.601 188.069 362.559 199.11 362.559 212.731C362.559 226.351 373.601 237.392 387.221 237.392Z" fill="white" stroke="#1D1D1B" stroke-width="3" stroke-linecap="round" stroke-linejoin="round"/>
<path d="M387.009 253.544V200.239" stroke="#1D1D1B" stroke-width="3" stroke-linecap="round" stroke-linejoin="round"/>
<path d="M387.009 237.392L405.367 217.507" stroke="#1D1D1B" stroke-width="3" stroke-linecap="round" stroke-linejoin="round"/>
<path d="M387.01 219.356L373.801 206.142" stroke="#1D1D1B" stroke-width="3" stroke-linecap="round" stroke-linejoin="round"/>
<path d="M367.414 240.151C378.31 240.151 387.142 231.318 387.142 220.422C387.142 209.527 378.31 200.694 367.414 200.694C356.519 200.694 347.686 209.527 347.686 220.422C347.686 231.318 356.519 240.151 367.414 240.151Z" fill="#56B99A" stroke="#1D1D1B" stroke-width="3" stroke-linecap="round" stroke-linejoin="round"/>
<path d="M367.58 253.075V210.427" stroke="#1D1D1B" stroke-width="3" stroke-linecap="round" stroke-linejoin="round"/>
<path d="M367.58 240.151L352.895 224.243" stroke="#1D1D1B" stroke-width="3" stroke-linecap="round" stroke-linejoin="round"/>
<path d="M367.58 225.719L378.15 215.154" stroke="#1D1D1B" stroke-width="3" stroke-linecap="round" stroke-linejoin="round"/>
<path d="M431.519 239.994C442.414 239.994 451.247 231.162 451.247 220.266C451.247 209.37 442.414 200.538 431.519 200.538C420.623 200.538 411.79 209.37 411.79 220.266C411.79 231.162 420.623 239.994 431.519 239.994Z" fill="white" stroke="#1D1D1B" stroke-width="3" stroke-linecap="round" stroke-linejoin="round"/>
<path d="M22.2823 91.4553H123.002C124.126 91.4553 125.204 91.9019 125.999 92.6969C126.794 93.4919 127.241 94.5701 127.241 95.6943V138.475C127.241 140.998 126.239 143.417 124.455 145.201C122.671 146.985 120.251 147.987 117.728 147.987H27.5604C26.3108 147.988 25.0733 147.742 23.9187 147.265C22.7641 146.787 21.7149 146.086 20.8311 145.203C19.9473 144.319 19.2462 143.271 18.7679 142.116C18.2895 140.962 18.0433 139.724 18.0433 138.475V95.7173C18.0403 95.1587 18.1477 94.605 18.3594 94.0881C18.5711 93.5711 18.8828 93.1011 19.2767 92.705C19.6707 92.309 20.139 91.9947 20.6548 91.7802C21.1706 91.5657 21.7237 91.4553 22.2823 91.4553Z" fill="#F6F6F6" stroke="#1D1D1B" stroke-width="3" stroke-miterlimit="10"/>
<path d="M28.797 78.1407H116.487C119.339 78.1407 122.074 79.2737 124.091 81.2904C126.108 83.3071 127.241 86.0424 127.241 88.8945V95.0874H18.0433V88.8945C18.0433 86.0424 19.1763 83.3071 21.193 81.2904C23.2097 79.2737 25.945 78.1407 28.797 78.1407Z" fill="#56B99A" stroke="#1D1D1B" stroke-width="3" stroke-miterlimit="10"/>
<path d="M114.501 84.0992L119.512 89.0876" stroke="#1D1D1B" stroke-width="2" stroke-linecap="round" stroke-linejoin="round"/>
<path d="M114.501 89.0876L119.512 84.0992" stroke="#1D1D1B" stroke-width="2" stroke-linecap="round" stroke-linejoin="round"/>
<path d="M108.579 84.0992H104.202C103.996 84.0992 103.83 84.266 103.83 84.4716V88.821C103.83 89.0266 103.996 89.1934 104.202 89.1934H108.579C108.785 89.1934 108.951 89.0266 108.951 88.821V84.4716C108.951 84.266 108.785 84.0992 108.579 84.0992Z" stroke="#1D1D1B" stroke-width="2" stroke-linecap="round" stroke-linejoin="round"/>
<path d="M98.5701 89.1933H93.2231" stroke="#1D1D1B" stroke-width="2" stroke-linecap="round" stroke-linejoin="round"/>
<path d="M53.2378 104.287H34.7141C30.1461 104.287 26.4431 107.99 26.4431 112.558V119.432C26.4431 124 30.1461 127.703 34.7141 127.703H53.2378C57.8058 127.703 61.5089 124 61.5089 119.432V112.558C61.5089 107.99 57.8058 104.287 53.2378 104.287Z" fill="white" stroke="#1D1D1B" stroke-width="3" stroke-miterlimit="10"/>
<path d="M68.4099 109.979H93.0346" stroke="#1D1D1B" stroke-width="3" stroke-miterlimit="10"/>
<path d="M96.6346 109.979H113.089" stroke="#1D1D1B" stroke-width="3" stroke-miterlimit="10"/>
<path d="M73.9086 136.824H98.5379" stroke="#1D1D1B" stroke-width="3" stroke-miterlimit="10"/>
<path d="M102.133 136.824H118.588" stroke="#1D1D1B" stroke-width="3" stroke-miterlimit="10"/>
<path d="M68.4099 122.719H83.7474" stroke="#1D1D1B" stroke-width="3" stroke-miterlimit="10"/>
<path d="M87.2784 122.719H101.949" stroke="#1D1D1B" stroke-width="3" stroke-miterlimit="10"/>
<path d="M105.489 122.719H119.255" stroke="#1D1D1B" stroke-width="3" stroke-miterlimit="10"/>
<path d="M26.4431 136.824H68.4099" stroke="#1D1D1B" stroke-width="3" stroke-miterlimit="10"/>
<path d="M240.976 200.542H83.4165C77.7058 200.542 73.0765 205.172 73.0765 210.882V261.456C73.0765 267.167 77.7058 271.796 83.4165 271.796H240.976C246.687 271.796 251.316 267.167 251.316 261.456V210.882C251.316 205.172 246.687 200.542 240.976 200.542Z" fill="#C6C6C6" stroke="#1D1D1B" stroke-width="4" stroke-linecap="round" stroke-linejoin="round"/>
<path d="M162.196 222.965C179.422 222.965 193.386 209.001 193.386 191.775C193.386 174.549 179.422 160.585 162.196 160.585C144.97 160.585 131.006 174.549 131.006 191.775C131.006 209.001 144.97 222.965 162.196 222.965Z" fill="white" stroke="#1D1D1B" stroke-width="4" stroke-linecap="round" stroke-linejoin="round"/>
<path d="M141.82 188.934C141.82 178.879 150.937 170.727 162.182 170.727C173.428 170.727 182.536 178.879 182.536 188.934" fill="#FF9F1C"/>
<path d="M141.82 188.934C141.82 178.879 150.937 170.727 162.182 170.727C173.428 170.727 182.536 178.879 182.536 188.934" stroke="#1D1D1B" stroke-width="2" stroke-linecap="round" stroke-linejoin="round"/>
<path d="M179.685 191.743H144.707C143.123 191.743 141.838 193.027 141.838 194.612V197.798C141.838 199.382 143.123 200.667 144.707 200.667H179.685C181.27 200.667 182.554 199.382 182.554 197.798V194.612C182.554 193.027 181.27 191.743 179.685 191.743Z" stroke="#1D1D1B" stroke-width="2" stroke-linecap="round" stroke-linejoin="round"/>
<path d="M117.669 228.533H98.5794C92.6073 228.533 87.7659 233.374 87.7659 239.346V239.351C87.7659 245.323 92.6073 250.164 98.5794 250.164H117.669C123.641 250.164 128.482 245.323 128.482 239.351V239.346C128.482 233.374 123.641 228.533 117.669 228.533Z" fill="white" stroke="#1D1D1B" stroke-width="2" stroke-linecap="round" stroke-linejoin="round"/>
<path d="M227.307 228.533H208.218C202.246 228.533 197.405 233.374 197.405 239.346V239.351C197.405 245.323 202.246 250.164 208.218 250.164H227.307C233.279 250.164 238.121 245.323 238.121 239.351V239.346C238.121 233.374 233.279 228.533 227.307 228.533Z" fill="white" stroke="#1D1D1B" stroke-width="2" stroke-linecap="round" stroke-linejoin="round"/>
<path d="M182.559 202.57C182.545 203.77 182.278 204.953 181.774 206.042C181.27 207.131 180.541 208.1 179.635 208.887C177.679 210.59 175.167 211.519 172.573 211.499H151.824C146.307 211.499 141.838 207.499 141.838 202.57" fill="#FF9F1C"/>
<path d="M182.559 202.57C182.545 203.77 182.278 204.953 181.774 206.042C181.27 207.131 180.541 208.1 179.635 208.887C177.679 210.59 175.167 211.519 172.573 211.499H151.824C146.307 211.499 141.838 207.499 141.838 202.57" stroke="#1D1D1B" stroke-width="2" stroke-linecap="round" stroke-linejoin="round"/>
<path d="M148.886 228.533H175.506C177.713 228.533 179.83 229.409 181.391 230.97C182.951 232.531 183.828 234.647 183.828 236.854V271.796H140.569V236.863C140.568 235.77 140.782 234.687 141.2 233.677C141.617 232.667 142.229 231.748 143.002 230.975C143.774 230.201 144.691 229.587 145.701 229.168C146.711 228.749 147.793 228.533 148.886 228.533Z" fill="#DADADA" stroke="#1D1D1B" stroke-width="2" stroke-miterlimit="10"/>
<path d="M286.428 224.997H358.21V260.858C358.21 262.388 357.909 263.903 357.323 265.317C356.738 266.73 355.88 268.014 354.798 269.096C353.716 270.178 352.432 271.036 351.018 271.622C349.605 272.207 348.09 272.509 346.56 272.509H298.078C296.548 272.509 295.033 272.207 293.62 271.622C292.206 271.036 290.922 270.178 289.84 269.096C288.758 268.014 287.9 266.73 287.315 265.317C286.729 263.903 286.428 262.388 286.428 260.858V224.997Z" fill="#C6C6C6" stroke="#1D1D1B" stroke-width="3.84" stroke-linecap="round" stroke-linejoin="round"/>
<path d="M330.565 238.215H314.252C309.146 238.215 305.007 242.355 305.007 247.461C305.007 252.567 309.146 256.707 314.252 256.707H330.565C335.671 256.707 339.81 252.567 339.81 247.461C339.81 242.355 335.671 238.215 330.565 238.215Z" fill="white" stroke="#1D1D1B" stroke-width="1.92" stroke-linecap="round" stroke-linejoin="round"/>
<path d="M295.66 225.365V199.995" stroke="#1D1D1B" stroke-width="1.92" stroke-linejoin="round"/>
<path d="M313.645 225.365V199.995" stroke="#1D1D1B" stroke-width="1.92" stroke-linejoin="round"/>
<path d="M331.466 224.997V200.671" stroke="#1D1D1B" stroke-width="1.92" stroke-linejoin="round"/>
<path d="M349.456 225.365V199.995" stroke="#1D1D1B" stroke-width="1.92" stroke-linejoin="round"/>
<path d="M290.556 199.995H354.417C357.871 199.995 361.184 201.368 363.627 203.81C366.069 206.253 367.442 209.566 367.442 213.02V224.974H277.531V213.02C277.531 209.566 278.903 206.253 281.346 203.81C283.789 201.368 287.102 199.995 290.556 199.995Z" fill="white" stroke="#1D1D1B" stroke-width="3.84" stroke-linecap="round" stroke-linejoin="round"/>
<path d="M313.646 200.464H295.66V224.303H313.646V200.464Z" fill="#56B99A" stroke="#1D1D1B" stroke-width="1.86" stroke-linejoin="round"/>
<path d="M349.452 200.464H331.466V224.303H349.452V200.464Z" fill="#56B99A" stroke="#1D1D1B" stroke-width="1.86" stroke-linejoin="round"/>
</svg>
