<svg width="468" height="303" viewBox="0 0 468 303" fill="none" xmlns="http://www.w3.org/2000/svg">
<path d="M418.077 281.325H21.5924C19.6118 281.325 18.0062 282.929 18.0062 284.908V287.672C18.0062 289.65 19.6118 291.254 21.5924 291.254H418.077C420.058 291.254 421.664 289.65 421.664 287.672V284.908C421.664 282.929 420.058 281.325 418.077 281.325Z" fill="#D9D9D9"/>
<path d="M177.325 138.992H421.588V266.736C421.588 267.429 421.451 268.115 421.186 268.756C420.92 269.396 420.53 269.977 420.039 270.467C419.548 270.956 418.965 271.344 418.323 271.608C417.682 271.872 416.995 272.007 416.301 272.006H182.6C181.201 272.006 179.859 271.45 178.87 270.462C177.881 269.474 177.325 268.134 177.325 266.736V138.992Z" fill="white" stroke="#1D1D1B" stroke-width="4" stroke-miterlimit="10"/>
<path d="M182.541 112.954H416.372C417.755 112.954 419.082 113.503 420.06 114.481C421.039 115.458 421.588 116.783 421.588 118.165V138.917H177.325V118.165C177.325 116.783 177.875 115.458 178.853 114.481C179.831 113.503 181.158 112.954 182.541 112.954Z" fill="#56B99A" stroke="#1D1D1B" stroke-width="4" stroke-miterlimit="10"/>
<path d="M402.211 122.136L409.818 129.735" stroke="#1D1D1B" stroke-width="4" stroke-linecap="round" stroke-linejoin="round"/>
<path d="M402.211 129.735L409.818 122.136" stroke="#1D1D1B" stroke-width="4" stroke-linecap="round" stroke-linejoin="round"/>
<path d="M393.417 122.136H386.391C386.185 122.136 386.019 122.303 386.019 122.508V129.527C386.019 129.732 386.185 129.898 386.391 129.898H393.417C393.622 129.898 393.789 129.732 393.789 129.527V122.508C393.789 122.303 393.622 122.136 393.417 122.136Z" stroke="#1D1D1B" stroke-width="4" stroke-linecap="round" stroke-linejoin="round"/>
<path d="M378.04 129.898H369.927" stroke="#1D1D1B" stroke-width="4" stroke-linecap="round" stroke-linejoin="round"/>
<path d="M375.561 148.229H224.744C215.347 148.229 207.728 155.839 207.728 165.227V165.231C207.728 174.619 215.347 182.229 224.744 182.229H375.561C384.959 182.229 392.577 174.619 392.577 165.231V165.227C392.577 155.839 384.959 148.229 375.561 148.229Z" fill="#F6F6F6" stroke="#1D1D1B" stroke-width="4" stroke-miterlimit="10"/>
<path d="M375.143 228.773H224.326C214.929 228.773 207.31 236.383 207.31 245.771V245.775C207.31 255.163 214.929 262.774 224.326 262.774H375.143C384.541 262.774 392.159 255.163 392.159 245.775V245.771C392.159 236.383 384.541 228.773 375.143 228.773Z" fill="#F6F6F6" stroke="#1D1D1B" stroke-width="4" stroke-miterlimit="10"/>
<path d="M439.252 187.912H224.326C214.929 187.912 207.31 195.522 207.31 204.91V204.914C207.31 214.302 214.929 221.913 224.326 221.913H439.252C448.649 221.913 456.268 214.302 456.268 204.914V204.91C456.268 195.522 448.649 187.912 439.252 187.912Z" fill="#56B99A" stroke="#56B99A" stroke-miterlimit="10"/>
<path d="M240.238 160.5H287.979" stroke="#1D1D1B" stroke-width="4" stroke-miterlimit="10"/>
<path d="M294.608 160.5H309.969" stroke="#1D1D1B" stroke-width="4" stroke-miterlimit="10"/>
<path d="M240.238 171.837H272.878" stroke="#1D1D1B" stroke-width="4" stroke-miterlimit="10"/>
<path d="M240.238 239.199H287.979" stroke="#1D1D1B" stroke-width="4" stroke-miterlimit="10"/>
<path d="M294.132 239.199H309.492" stroke="#1D1D1B" stroke-width="4" stroke-miterlimit="10"/>
<path d="M240.238 250.535H272.878" stroke="#1D1D1B" stroke-width="4" stroke-miterlimit="10"/>
<path d="M239.695 199.432H287.979" stroke="white" stroke-width="4" stroke-miterlimit="10"/>
<path d="M280.97 210.789H294.984" stroke="white" stroke-width="4" stroke-miterlimit="10"/>
<path d="M239.695 210.647H272.878" stroke="white" stroke-width="4" stroke-miterlimit="10"/>
<path d="M211.198 129.656V131.047H236.113V129.656H211.198Z" fill="black"/>
<path d="M191.586 129.656V131.047H199.193V129.656H191.586Z" fill="black"/>
<path d="M203.114 125.74H204.506V121.151H203.114V125.74Z" fill="black"/>
<path d="M237.743 130.295H239.135V127.151H237.743V130.295Z" fill="black"/>
<path d="M215.106 134.525H216.497V125.74H215.106V134.525Z" fill="black"/>
<path d="M203.808 121.852C204.193 121.852 204.506 121.54 204.506 121.155C204.506 120.77 204.193 120.458 203.808 120.458C203.422 120.458 203.11 120.77 203.11 121.155C203.11 121.54 203.422 121.852 203.808 121.852Z" fill="black"/>
<path d="M236.113 131.047C236.498 131.047 236.811 130.734 236.811 130.349C236.811 129.964 236.498 129.652 236.113 129.652C235.727 129.652 235.415 129.964 235.415 130.349C235.415 130.734 235.727 131.047 236.113 131.047Z" fill="black"/>
<path d="M215.799 135.222C216.185 135.222 216.497 134.91 216.497 134.525C216.497 134.14 216.185 133.827 215.799 133.827C215.414 133.827 215.101 134.14 215.101 134.525C215.101 134.91 215.414 135.222 215.799 135.222Z" fill="black"/>
<path d="M233.822 123.243C234.208 123.243 234.52 122.93 234.52 122.545C234.52 122.16 234.208 121.848 233.822 121.848C233.437 121.848 233.124 122.16 233.124 122.545C233.124 122.93 233.437 123.243 233.822 123.243Z" fill="black"/>
<path d="M238.437 118.633C238.822 118.633 239.135 118.321 239.135 117.936C239.135 117.551 238.822 117.238 238.437 117.238C238.051 117.238 237.739 117.551 237.739 117.936C237.739 118.321 238.051 118.633 238.437 118.633Z" fill="black"/>
<path d="M238.437 117.936C238.437 119.154 237.952 120.322 237.09 121.183C236.228 122.045 235.059 122.529 233.839 122.529" stroke="black" stroke-width="3.33" stroke-miterlimit="10"/>
<path d="M238.437 131.047C238.822 131.047 239.135 130.734 239.135 130.349C239.135 129.964 238.822 129.652 238.437 129.652C238.051 129.652 237.739 129.964 237.739 130.349C237.739 130.734 238.051 131.047 238.437 131.047Z" fill="black"/>
<path d="M238.437 127.155C238.437 125.937 237.952 124.769 237.09 123.907C236.228 123.046 235.059 122.562 233.839 122.562" stroke="black" stroke-width="3.33" stroke-miterlimit="10"/>
<path d="M191.586 121.848C192.359 121.847 193.115 122.075 193.759 122.504C194.402 122.932 194.903 123.542 195.2 124.255C195.496 124.968 195.574 125.754 195.424 126.511C195.274 127.269 194.902 127.965 194.355 128.511C193.809 129.058 193.113 129.43 192.354 129.581C191.596 129.732 190.81 129.655 190.096 129.359C189.382 129.064 188.771 128.564 188.341 127.921C187.912 127.279 187.682 126.524 187.682 125.752C187.684 124.718 188.095 123.726 188.827 122.994C189.559 122.262 190.551 121.85 191.586 121.848ZM191.586 120.458C190.538 120.458 189.513 120.768 188.642 121.35C187.77 121.932 187.091 122.759 186.69 123.726C186.289 124.693 186.184 125.758 186.388 126.785C186.593 127.812 187.097 128.755 187.839 129.496C188.58 130.236 189.524 130.741 190.552 130.945C191.58 131.149 192.646 131.044 193.614 130.644C194.583 130.243 195.411 129.564 195.993 128.694C196.575 127.823 196.886 126.799 196.886 125.752C196.886 124.348 196.328 123.001 195.334 122.008C194.34 121.015 192.992 120.458 191.586 120.458Z" fill="black"/>
<path d="M211.198 121.848C211.971 121.847 212.727 122.075 213.37 122.504C214.013 122.932 214.515 123.542 214.811 124.255C215.108 124.968 215.186 125.754 215.035 126.511C214.885 127.269 214.513 127.965 213.967 128.511C213.42 129.058 212.724 129.43 211.966 129.581C211.208 129.732 210.422 129.655 209.707 129.359C208.993 129.064 208.382 128.564 207.953 127.921C207.523 127.279 207.294 126.524 207.294 125.752C207.296 124.718 207.708 123.727 208.439 122.995C209.171 122.264 210.162 121.851 211.198 121.848ZM211.198 120.458C210.15 120.46 209.126 120.773 208.257 121.356C207.387 121.939 206.709 122.767 206.31 123.735C205.911 124.702 205.808 125.766 206.014 126.793C206.219 127.819 206.725 128.761 207.467 129.5C208.209 130.239 209.153 130.742 210.181 130.946C211.208 131.149 212.273 131.043 213.241 130.642C214.209 130.241 215.036 129.563 215.618 128.692C216.199 127.822 216.51 126.799 216.51 125.752C216.51 124.348 215.952 123.001 214.958 122.008C213.964 121.015 212.616 120.458 211.21 120.458H211.198Z" fill="black"/>
<path d="M203.808 125.74C203.808 126.958 203.323 128.126 202.461 128.987C201.599 129.849 200.429 130.333 199.21 130.333" stroke="black" stroke-width="3.33" stroke-miterlimit="10"/>
<path d="M216.497 128.52H213.944V131.042H216.497V128.52Z" fill="black"/>
<path d="M154.675 112.954H133.091C128.216 112.954 124.263 116.902 124.263 121.773V263.187C124.263 268.057 128.216 272.006 133.091 272.006H154.675C159.55 272.006 163.503 268.057 163.503 263.187V121.773C163.503 116.902 159.55 112.954 154.675 112.954Z" fill="#DADADA" stroke="#1D1D1B" stroke-width="4" stroke-miterlimit="10"/>
<path d="M118.28 116.39L99.6544 111.64C96.4873 110.832 93.2644 112.742 92.4559 115.906L56.0041 258.558C55.1956 261.722 57.1077 264.942 60.2748 265.749L78.9001 270.499C82.0673 271.307 85.2901 269.397 86.0986 266.233L122.55 123.581C123.359 120.417 121.447 117.197 118.28 116.39Z" fill="#9D9D9C" stroke="#1D1D1B" stroke-width="4" stroke-miterlimit="10"/>
<path d="M86.1902 116.433L78.6493 114.51C75.4822 113.703 72.2593 115.613 71.4509 118.777L34.999 261.429C34.1905 264.593 36.1026 267.812 39.2697 268.62L46.8106 270.543C49.9777 271.35 53.2006 269.44 54.009 266.276L90.4609 123.624C91.2694 120.461 89.3573 117.241 86.1902 116.433Z" fill="#DADADA" stroke="#1D1D1B" stroke-width="4" stroke-miterlimit="10"/>
<path d="M57.9034 147.544L54.1654 146.591C50.9982 145.784 47.7754 147.694 46.9669 150.858L18.3905 262.689C17.582 265.853 19.4941 269.073 22.6613 269.88L26.3993 270.834C29.5664 271.641 32.7893 269.731 33.5978 266.567L62.1741 154.736C62.9826 151.572 61.0705 148.352 57.9034 147.544Z" fill="#9D9D9C" stroke="#1D1D1B" stroke-width="4" stroke-miterlimit="10"/>
<path d="M109.074 67.2331C119.49 67.2331 127.933 58.7983 127.933 48.3935C127.933 37.9886 119.49 29.5538 109.074 29.5538C98.6586 29.5538 90.2152 37.9886 90.2152 48.3935C90.2152 58.7983 98.6586 67.2331 109.074 67.2331Z" stroke="#1D1D1B" stroke-width="4" stroke-miterlimit="10"/>
<path d="M94.0443 64.3871L93.3971 63.7405C91.613 61.9582 88.7204 61.9582 86.9363 63.7405L70.7017 79.9585C68.9176 81.7408 68.9176 84.6304 70.7017 86.4127L71.3489 87.0593C73.133 88.8415 76.0256 88.8415 77.8097 87.0593L94.0443 70.8412C95.8284 69.059 95.8284 66.1694 94.0443 64.3871Z" fill="#56B99A" stroke="#1D1D1B" stroke-width="4" stroke-miterlimit="10"/>
<path d="M143.883 146.462C149.419 146.462 153.906 141.979 153.906 136.45C153.906 130.92 149.419 126.437 143.883 126.437C138.347 126.437 133.86 130.92 133.86 136.45C133.86 141.979 138.347 146.462 143.883 146.462Z" fill="white" stroke="#1D1D1B" stroke-width="4" stroke-miterlimit="10"/>
<path d="M143.883 180.033C149.419 180.033 153.906 175.55 153.906 170.02C153.906 164.49 149.419 160.007 143.883 160.007C138.347 160.007 133.86 164.49 133.86 170.02C133.86 175.55 138.347 180.033 143.883 180.033Z" fill="white" stroke="#1D1D1B" stroke-width="4" stroke-miterlimit="10"/>
<path d="M300.522 57.7131C300.522 54.4563 299.164 51.5668 296.61 48.9989C295.001 47.3789 291.31 45.5124 285.822 46.4937C285.643 45.5751 285.576 39.7336 280.359 36.4726C275.26 33.2992 270.37 35.9298 269.283 36.0843C268.326 32.9544 266.399 30.2088 263.78 28.2435C261.161 26.2781 257.984 25.1945 254.708 25.1488C247.77 25.0485 241.509 29.5079 239.369 35.3703C237.237 35.3703 233.714 34.673 229.952 36.9653C224.694 40.1762 224.234 44.6356 223.636 46.2223C222.571 46.2849 216.322 46.2223 212.957 49.9802C210.148 53.1452 209.559 55.2496 209.542 57.9803C209.542 61.2163 210.892 63.1955 212.468 65.0995C214.391 67.4294 216.932 69.3835 222.838 69.6925C229.392 70.0349 232.401 73.1665 232.401 73.1665C232.401 73.1665 235.795 75.417 236.251 83.4548C236.669 90.7284 241.718 92.7911 244.966 92.7911C248.777 92.7911 252.209 92.4111 254.09 86.7158C254.488 85.2148 254.719 83.6745 254.78 82.1228V75.7761" stroke="#1D1D1B" stroke-width="4" stroke-linecap="round" stroke-linejoin="round"/>
<path d="M266.512 53.2161C266.512 56.6818 261.63 62.7153 261.63 66.9158C261.63 75.4045 254.721 75.4087 254.721 75.4087C254.721 75.4087 247.812 75.4087 247.812 66.9158C247.812 62.7153 242.93 56.6818 242.93 53.2161C242.93 50.0922 244.172 47.0962 246.384 44.8872C248.595 42.6782 251.594 41.4372 254.721 41.4372C257.848 41.4372 260.847 42.6782 263.059 44.8872C265.27 47.0962 266.512 50.0922 266.512 53.2161Z" fill="#56B99A" stroke="#1D1D1B" stroke-width="4" stroke-linecap="round" stroke-linejoin="round"/>
<path d="M247.812 66.4189L261.291 66.1893" stroke="#1D1D1B" stroke-width="4" stroke-linecap="round" stroke-linejoin="round"/>
<path d="M395.883 46.3726H384.915C378.877 46.3726 373.981 51.2629 373.981 57.2955V68.2519C373.981 74.2845 378.877 79.1749 384.915 79.1749H395.883C401.922 79.1749 406.817 74.2845 406.817 68.2519V57.2955C406.817 51.2629 401.922 46.3726 395.883 46.3726Z" fill="#56B99A" stroke="#1D1D1B" stroke-width="4" stroke-miterlimit="10"/>
<path d="M380.61 58.5858C380.804 58.864 381.02 59.1252 381.258 59.3666L386.93 65.0327C387.971 66.0712 389.382 66.6545 390.853 66.6545C392.324 66.6545 393.735 66.0712 394.775 65.0327L421.062 38.7733" stroke="#1D1D1B" stroke-width="4" stroke-linecap="round" stroke-linejoin="round"/>
<path d="M80.3427 270.515L119.586 116.892L98.537 111.351L59.2936 264.97" fill="white"/>
<path d="M80.3427 270.515L119.586 116.892L98.537 111.351L59.2936 264.97" stroke="#1D1D1B" stroke-width="3" stroke-linecap="round" stroke-linejoin="round"/>
<path d="M163.503 229.742H124.263V241.867H163.503V229.742Z" fill="#FFBF69" stroke="#1D1D1B" stroke-width="3" stroke-miterlimit="10"/>
<path d="M300.502 62.7737V111.351" stroke="#575756" stroke-width="3" stroke-linecap="round" stroke-linejoin="round" stroke-dasharray="12 12 12 12 12 12"/>
<path d="M410.182 62.6735C412.594 62.0347 417.066 62.5107 422.228 64.2059C425.164 65.1851 427.873 66.7423 430.197 68.7855C432.52 70.8287 434.409 73.3165 435.753 76.1018C437.067 78.8732 437.882 81.854 438.161 84.9078V202.818" stroke="#575756" stroke-width="3" stroke-linecap="round" stroke-linejoin="round" stroke-dasharray="12 12 12 12 12 12"/>
<path d="M143.854 108.954C144.201 95.4383 143.707 86.8786 143.854 78.9327C144.196 61.9219 147.014 58.9365 153.613 53.0449C158.729 48.4519 164.999 49.8883 172.251 52.6608C172.251 52.6608 179.494 61.8259 177.509 69.9346C173.973 84.3859 151.093 89.1417 134.161 79.6342C129.94 77.1888 126.383 73.7483 123.799 69.6131" stroke="#575756" stroke-width="3" stroke-linecap="round" stroke-linejoin="round" stroke-dasharray="12 12 12 12 12 12"/>
</svg>
