<svg width="488" height="316" viewBox="0 0 488 316" fill="none" xmlns="http://www.w3.org/2000/svg">
<path d="M443.854 252.292H53.2241C44.5515 252.292 37.521 259.317 37.521 267.982V282.021C37.521 290.686 44.5515 297.711 53.2241 297.711H443.854C452.527 297.711 459.557 290.686 459.557 282.021V267.982C459.557 259.317 452.527 252.292 443.854 252.292Z" fill="#DADADA"/>
<path d="M316.085 252.292H387.893C388.67 252.287 389.44 252.14 390.164 251.857C390.312 251.8 390.46 251.739 390.6 251.665C391.692 251.151 392.616 250.336 393.262 249.317C393.909 248.297 394.252 247.115 394.252 245.908V90.0139H96.3195V245.908C96.3193 247.142 96.6776 248.348 97.3507 249.382C98.0238 250.415 98.9828 251.231 100.111 251.731C100.917 252.085 101.789 252.267 102.67 252.266H313.893" fill="#F5F5F5"/>
<path d="M316.085 252.292H387.893C388.67 252.287 389.44 252.14 390.164 251.857C390.312 251.8 390.46 251.739 390.6 251.665C391.692 251.151 392.616 250.336 393.262 249.317C393.909 248.297 394.252 247.115 394.252 245.908V90.0139H96.3195V245.908C96.3193 247.142 96.6776 248.348 97.3507 249.382C98.0238 250.415 98.9828 251.231 100.111 251.731V251.731C100.917 252.085 101.789 252.267 102.67 252.266H313.893" stroke="#1D1D1B" stroke-width="4" stroke-miterlimit="10"/>
<path d="M102.591 58.2514H387.945C389.616 58.2514 391.218 58.9144 392.399 60.0944C393.58 61.2745 394.243 62.875 394.243 64.5438V89.9224H96.2934V64.5395C96.2946 62.8714 96.9586 61.272 98.1395 60.0929C99.3205 58.9138 100.922 58.2514 102.591 58.2514Z" fill="#56B99A" stroke="#1D1D1B" stroke-width="4" stroke-miterlimit="10"/>
<path d="M370.608 69.4514L379.887 78.7224" stroke="#1D1D1B" stroke-width="4" stroke-linecap="round" stroke-linejoin="round"/>
<path d="M370.608 78.7224L379.887 69.4514" stroke="#1D1D1B" stroke-width="4" stroke-linecap="round" stroke-linejoin="round"/>
<path d="M359.886 69.4514H351.305C351.057 69.4514 350.856 69.6523 350.856 69.9V78.4742C350.856 78.7219 351.057 78.9227 351.305 78.9227H359.886C360.134 78.9227 360.335 78.7219 360.335 78.4742V69.9C360.335 69.6523 360.134 69.4514 359.886 69.4514Z" stroke="#1D1D1B" stroke-width="4" stroke-linecap="round" stroke-linejoin="round"/>
<path d="M341.124 78.9184H331.226" stroke="#1D1D1B" stroke-width="4" stroke-linecap="round" stroke-linejoin="round"/>
<path d="M137.153 78.2565V79.7675H164.179V78.2565H137.153Z" fill="black"/>
<path d="M115.884 78.2565V79.7675H124.135V78.2565H115.884Z" fill="black"/>
<path d="M128.38 74.0151H129.892V69.0378H128.38V74.0151Z" fill="black"/>
<path d="M165.94 78.9576H167.452V75.5479H165.94V78.9576Z" fill="black"/>
<path d="M141.389 83.5429H142.902V74.0151H141.389V83.5429Z" fill="black"/>
<path d="M129.138 69.7868C129.554 69.7868 129.892 69.4495 129.892 69.0334C129.892 68.6174 129.554 68.2801 129.138 68.2801C128.721 68.2801 128.384 68.6174 128.384 69.0334C128.384 69.4495 128.721 69.7868 129.138 69.7868Z" fill="black"/>
<path d="M164.179 79.7631C164.595 79.7631 164.933 79.4259 164.933 79.0098C164.933 78.5937 164.595 78.2565 164.179 78.2565C163.763 78.2565 163.425 78.5937 163.425 79.0098C163.425 79.4259 163.763 79.7631 164.179 79.7631Z" fill="black"/>
<path d="M142.148 84.2963C142.564 84.2963 142.902 83.959 142.902 83.5429C142.902 83.1269 142.564 82.7896 142.148 82.7896C141.731 82.7896 141.394 83.1269 141.394 83.5429C141.394 83.959 141.731 84.2963 142.148 84.2963Z" fill="black"/>
<path d="M161.695 71.2978C162.111 71.2978 162.449 70.9605 162.449 70.5445C162.449 70.1284 162.111 69.7911 161.695 69.7911C161.278 69.7911 160.941 70.1284 160.941 70.5445C160.941 70.9605 161.278 71.2978 161.695 71.2978Z" fill="black"/>
<path d="M166.698 66.2988C167.115 66.2988 167.452 65.9615 167.452 65.5454C167.452 65.1293 167.115 64.7921 166.698 64.7921C166.282 64.7921 165.944 65.1293 165.944 65.5454C165.944 65.9615 166.282 66.2988 166.698 66.2988Z" fill="black"/>
<path d="M166.698 65.5454C166.698 66.8712 166.171 68.1428 165.233 69.0803C164.294 70.0178 163.022 70.5445 161.695 70.5445" stroke="black" stroke-width="3.47" stroke-miterlimit="10"/>
<path d="M166.698 79.7631C167.115 79.7631 167.452 79.4259 167.452 79.0098C167.452 78.5937 167.115 78.2565 166.698 78.2565C166.282 78.2565 165.944 78.5937 165.944 79.0098C165.944 79.4259 166.282 79.7631 166.698 79.7631Z" fill="black"/>
<path d="M166.698 75.5435C166.698 74.2177 166.171 72.9462 165.233 72.0087C164.294 71.0711 163.022 70.5445 161.695 70.5445" stroke="black" stroke-width="3.47" stroke-miterlimit="10"/>
<path d="M115.88 69.7911C116.718 69.7911 117.537 70.0394 118.233 70.5045C118.93 70.9696 119.473 71.6306 119.794 72.404C120.114 73.1775 120.198 74.0285 120.035 74.8496C119.871 75.6706 119.468 76.4248 118.875 77.0168C118.283 77.6087 117.528 78.0118 116.706 78.1752C115.885 78.3385 115.033 78.2547 114.259 77.9343C113.485 77.6139 112.823 77.0714 112.357 76.3754C111.892 75.6793 111.644 74.861 111.644 74.0238C111.646 72.9019 112.093 71.8267 112.887 71.0334C113.681 70.2401 114.757 69.7934 115.88 69.7911ZM115.88 68.2801C114.743 68.2801 113.632 68.6168 112.686 69.2478C111.741 69.8787 111.004 70.7755 110.569 71.8248C110.134 72.8741 110.02 74.0287 110.241 75.1428C110.463 76.2568 111.01 77.2802 111.813 78.0837C112.617 78.8871 113.641 79.4345 114.756 79.6566C115.87 79.8787 117.026 79.7656 118.077 79.3316C119.127 78.8975 120.025 78.162 120.658 77.218C121.29 76.274 121.628 75.164 121.628 74.0282C121.629 73.2737 121.481 72.5266 121.192 71.8295C120.903 71.1323 120.48 70.4989 119.946 69.9655C119.412 69.432 118.778 69.0089 118.08 68.7205C117.383 68.432 116.635 68.2839 115.88 68.2844V68.2801Z" fill="black"/>
<path d="M137.153 69.7911C137.991 69.7886 138.811 70.0345 139.51 70.4978C140.208 70.9611 140.753 71.621 141.076 72.394C141.398 73.1669 141.484 74.0181 141.323 74.8399C141.161 75.6617 140.759 76.4171 140.168 77.0106C139.576 77.604 138.822 78.0088 138 78.1736C137.178 78.3385 136.326 78.2561 135.551 77.9368C134.776 77.6175 134.113 77.0756 133.647 76.3799C133.18 75.6841 132.931 74.8657 132.93 74.0282C132.931 72.9059 133.378 71.83 134.172 71.0365C134.966 70.243 136.043 69.7966 137.166 69.7955L137.153 69.7911ZM137.153 68.2801C136.016 68.2801 134.905 68.6168 133.96 69.2478C133.014 69.8787 132.277 70.7755 131.842 71.8248C131.407 72.8741 131.293 74.0287 131.514 75.1428C131.736 76.2568 132.283 77.2802 133.086 78.0837C133.89 78.8871 134.914 79.4345 136.029 79.6566C137.144 79.8787 138.299 79.7656 139.35 79.3316C140.4 78.8975 141.298 78.162 141.931 77.218C142.563 76.274 142.901 75.164 142.902 74.0282C142.902 72.5048 142.296 71.0439 141.218 69.9667C140.14 68.8896 138.678 68.2844 137.153 68.2844V68.2801Z" fill="black"/>
<path d="M129.138 74.0281C129.138 75.354 128.611 76.6255 127.672 77.563C126.734 78.5005 125.461 79.0272 124.134 79.0272" stroke="black" stroke-width="3.47" stroke-miterlimit="10"/>
<path d="M142.902 77.0284H140.134V79.7675H142.902V77.0284Z" fill="black"/>
<path d="M197.194 149.903H188.642C185.985 149.903 183.831 152.055 183.831 154.71V195.813C183.831 198.468 185.985 200.621 188.642 200.621H197.194C199.851 200.621 202.005 198.468 202.005 195.813V154.71C202.005 152.055 199.851 149.903 197.194 149.903Z" fill="white"/>
<path d="M193.733 194.812V190.296C193.733 188.448 194.468 186.676 195.775 185.369C197.083 184.063 198.857 183.328 200.706 183.328H211.001" fill="white"/>
<path d="M223.762 138.197H285.611C288.999 138.197 292.248 139.542 294.644 141.936C297.04 144.329 298.386 147.576 298.386 150.961V276.809H210.988V150.961C210.988 147.576 212.334 144.329 214.729 141.936C217.125 139.542 220.374 138.197 223.762 138.197Z" fill="white"/>
<path d="M170.311 202.924L144.335 183.864C141.6 181.858 138.295 180.778 134.902 180.783C131.509 180.788 128.206 181.877 125.477 183.89L99.7016 202.924C91.2464 208.637 86.7616 214.708 86.7616 221.849V251.025C86.7616 252.723 87.0963 254.404 87.7466 255.973C88.3969 257.541 89.3501 258.967 90.5516 260.167C91.7532 261.368 93.1797 262.32 94.7497 262.97C96.3196 263.619 98.0023 263.954 99.7016 263.954H170.307C172.006 263.954 173.689 263.619 175.259 262.97C176.829 262.32 178.255 261.368 179.457 260.167C180.658 258.967 181.611 257.541 182.262 255.973C182.912 254.404 183.247 252.723 183.247 251.025V221.849C183.251 214.725 178.919 208.002 170.311 202.924Z" fill="white"/>
<path d="M111.051 229.975C115.884 229.975 119.802 226.06 119.802 221.231C119.802 216.402 115.884 212.487 111.051 212.487C106.217 212.487 102.299 216.402 102.299 221.231C102.299 226.06 106.217 229.975 111.051 229.975Z" fill="white"/>
<path d="M131.243 229.64H137.78C139.411 229.64 140.976 230.287 142.129 231.439C143.282 232.592 143.93 234.154 143.93 235.784V263.958H125.085V235.784C125.085 234.154 125.733 232.592 126.886 231.439C128.039 230.287 129.603 229.64 131.234 229.64H131.243Z" fill="white"/>
<path d="M178.418 223.609V252.784C178.425 255.599 177.507 258.338 175.803 260.579C175.401 261.115 174.956 261.617 174.473 262.081C173.884 262.654 173.239 263.166 172.547 263.61C172.264 263.801 171.967 263.976 171.675 264.141H139.467V263.61H120.652V263.074H97.5181C94.0862 263.074 90.7949 261.712 88.3681 259.287C85.9414 256.863 84.5781 253.574 84.5781 250.145V220.97C84.5781 216.458 86.3694 212.378 89.8081 208.542C91.4075 207.142 93.0962 205.847 94.8638 204.666L106.344 196.227L130.084 178.7L130.288 178.848L149.465 192.93L153.274 195.726L157.524 198.844H157.546L165.478 204.666C168.189 206.22 170.664 208.154 172.826 210.41C173.6 211.238 174.315 212.12 174.966 213.049C175.005 213.101 175.044 213.149 175.079 213.205C177.233 216.249 178.399 219.881 178.418 223.609Z" fill="#C6C6C6"/>
<path d="M134.629 230.946H128.092C127.55 230.946 127.011 231.017 126.488 231.155C126.248 231.221 126.012 231.302 125.782 231.399C124.647 231.858 123.676 232.644 122.992 233.658C122.308 234.672 121.942 235.868 121.942 237.09V263.179H140.775V237.09C140.775 235.462 140.127 233.899 138.975 232.747C137.823 231.595 136.26 230.947 134.629 230.946Z" fill="#9D9D9C"/>
<path d="M105.433 247.972C110.266 247.972 114.184 244.058 114.184 239.228C114.184 234.399 110.266 230.484 105.433 230.484C100.599 230.484 96.6813 234.399 96.6813 239.228C96.6813 244.058 100.599 247.972 105.433 247.972Z" fill="#9D9D9C"/>
<path d="M157.907 247.972C162.741 247.972 166.659 244.058 166.659 239.228C166.659 234.399 162.741 230.484 157.907 230.484C153.074 230.484 149.156 234.399 149.156 239.228C149.156 244.058 153.074 247.972 157.907 247.972Z" fill="#9D9D9C"/>
<path d="M106.562 246.427C111.395 246.427 115.313 242.512 115.313 237.683C115.313 232.853 111.395 228.939 106.562 228.939C101.728 228.939 97.8101 232.853 97.8101 237.683C97.8101 242.512 101.728 246.427 106.562 246.427Z" stroke="black" stroke-width="2" stroke-miterlimit="10"/>
<path d="M158.862 246.427C163.695 246.427 167.613 242.512 167.613 237.683C167.613 232.853 163.695 228.939 158.862 228.939C154.028 228.939 150.11 232.853 150.11 237.683C150.11 242.512 154.028 246.427 158.862 246.427Z" stroke="black" stroke-width="2" stroke-miterlimit="10"/>
<path d="M129.918 229.021H136.456C138.081 229.026 139.638 229.673 140.787 230.821C141.936 231.969 142.583 233.525 142.588 235.148V263.322H123.777V235.148C123.777 234.341 123.936 233.542 124.245 232.797C124.554 232.051 125.007 231.374 125.578 230.804C126.149 230.233 126.827 229.78 127.573 229.472C128.32 229.163 129.119 229.004 129.927 229.004L129.918 229.021Z" stroke="black" stroke-width="2" stroke-miterlimit="10"/>
<path d="M210.225 160.95H201.548" stroke="black" stroke-width="2" stroke-miterlimit="10"/>
<path d="M210.225 188.184H201.548" stroke="black" stroke-width="2" stroke-miterlimit="10"/>
<path d="M295.344 154.07V278.08H207.946V154.07C207.942 151.894 208.497 149.754 209.556 147.853C210.615 145.952 212.143 144.354 213.995 143.21C214.503 142.895 215.033 142.617 215.581 142.378C217.197 141.67 218.943 141.305 220.707 141.307H282.552C284.231 141.305 285.893 141.634 287.445 142.274C288.997 142.915 290.407 143.855 291.595 145.04C292.783 146.225 293.725 147.633 294.368 149.182C295.012 150.732 295.343 152.393 295.344 154.07Z" fill="#9D9D9C"/>
<path d="M194.892 151.793H186.341C183.684 151.793 181.53 153.945 181.53 156.6V197.703C181.53 200.358 183.684 202.511 186.341 202.511H194.892C197.55 202.511 199.704 200.358 199.704 197.703V156.6C199.704 153.945 197.55 151.793 194.892 151.793Z" fill="#9D9D9C"/>
<path d="M313.893 218.657V278.516H191.083V218.657C191.083 216.809 191.818 215.037 193.126 213.731C194.433 212.424 196.207 211.69 198.056 211.69H306.937C308.783 211.695 310.552 212.431 311.856 213.737C313.16 215.043 313.893 216.813 313.893 218.657Z" fill="#9D9D9C"/>
<path d="M274.846 158.133H229.685C224.666 158.133 220.598 162.198 220.598 167.212C220.598 172.227 224.666 176.291 229.685 176.291H274.846C279.865 176.291 283.933 172.227 283.933 167.212C283.933 162.198 279.865 158.133 274.846 158.133Z" fill="#C6C6C6"/>
<path d="M275.069 184.7H229.907C224.889 184.7 220.82 188.765 220.82 193.78C220.82 198.794 224.889 202.859 229.907 202.859H275.069C280.087 202.859 284.156 198.794 284.156 193.78C284.156 188.765 280.087 184.7 275.069 184.7Z" fill="#C6C6C6"/>
<path d="M274.615 211.272H229.454C224.435 211.272 220.367 215.337 220.367 220.351C220.367 225.366 224.435 229.431 229.454 229.431H274.615C279.634 229.431 283.702 225.366 283.702 220.351C283.702 215.337 279.634 211.272 274.615 211.272Z" fill="#C6C6C6"/>
<path d="M269.407 252.375V278.067H234.915V252.375C234.916 250.58 235.63 248.858 236.899 247.588C238.169 246.318 239.891 245.603 241.688 245.599H262.608C263.5 245.598 264.383 245.772 265.207 246.112C266.031 246.452 266.781 246.951 267.412 247.58C268.043 248.209 268.544 248.957 268.887 249.779C269.229 250.602 269.406 251.484 269.407 252.375Z" fill="#C6C6C6"/>
<path d="M196.736 149.876H188.185C185.527 149.876 183.373 152.029 183.373 154.684V195.787C183.373 198.442 185.527 200.594 188.185 200.594H196.736C199.393 200.594 201.548 198.442 201.548 195.787V154.684C201.548 152.029 199.393 149.876 196.736 149.876Z" stroke="black" stroke-width="3" stroke-miterlimit="10"/>
<path d="M193.275 277.087V215.957C193.275 214.11 194.01 212.337 195.318 211.031C196.626 209.724 198.399 208.99 200.249 208.99H210.539" stroke="black" stroke-width="4" stroke-miterlimit="10"/>
<path d="M223.304 138.607H285.154C288.542 138.607 291.791 139.952 294.187 142.345C296.582 144.739 297.928 147.985 297.928 151.37V277.218H210.508V151.37C210.508 149.692 210.839 148.031 211.483 146.481C212.126 144.931 213.069 143.523 214.258 142.337C215.446 141.152 216.857 140.212 218.409 139.572C219.962 138.932 221.625 138.604 223.304 138.607V138.607Z" stroke="black" stroke-width="4" stroke-miterlimit="10"/>
<path d="M277.043 155.433H231.882C226.863 155.433 222.794 159.498 222.794 164.512C222.794 169.527 226.863 173.592 231.882 173.592H277.043C282.062 173.592 286.13 169.527 286.13 164.512C286.13 159.498 282.062 155.433 277.043 155.433Z" fill="#DADADA" stroke="#1D1D1B" stroke-width="2" stroke-miterlimit="10"/>
<path d="M277.261 182H232.1C227.081 182 223.012 186.065 223.012 191.08C223.012 196.094 227.081 200.159 232.1 200.159H277.261C282.279 200.159 286.348 196.094 286.348 191.08C286.348 186.065 282.279 182 277.261 182Z" fill="#DADADA" stroke="#1D1D1B" stroke-width="2" stroke-miterlimit="10"/>
<path d="M276.808 208.572H231.646C226.628 208.572 222.559 212.637 222.559 217.651C222.559 222.666 226.628 226.731 231.646 226.731H276.808C281.826 226.731 285.895 222.666 285.895 217.651C285.895 212.637 281.826 208.572 276.808 208.572Z" fill="#DADADA" stroke="#1D1D1B" stroke-width="2" stroke-miterlimit="10"/>
<path d="M243.88 242.455H264.8C266.601 242.455 268.328 243.17 269.602 244.442C270.875 245.715 271.591 247.44 271.591 249.24V276.952H237.094V249.257C237.092 248.365 237.266 247.481 237.606 246.656C237.946 245.832 238.445 245.082 239.075 244.45C239.706 243.818 240.454 243.317 241.279 242.975C242.103 242.632 242.987 242.456 243.88 242.455Z" fill="#DADADA" stroke="#1D1D1B" stroke-width="2" stroke-miterlimit="10"/>
<path d="M181.508 220.983V250.158C181.507 253.587 180.143 256.875 177.717 259.299C175.29 261.724 171.999 263.086 168.568 263.087H97.9626C94.5307 263.087 91.2394 261.725 88.8127 259.301C86.386 256.876 85.0227 253.587 85.0227 250.158V220.983C85.0227 216.471 86.814 212.391 90.2527 208.555C92.5476 206.085 95.1335 203.902 97.9539 202.053L124.283 182.619C126.852 180.721 129.961 179.694 133.156 179.69C136.351 179.685 139.464 180.702 142.039 182.593L168.027 201.657C168.389 201.923 168.764 202.166 169.143 202.402C177.385 207.427 181.508 214.002 181.508 220.983Z" stroke="black" stroke-width="4" stroke-miterlimit="10"/>
<path d="M62.5816 45.0788H46.29" stroke="#1D1D1B" stroke-width="3" stroke-linecap="round" stroke-linejoin="round"/>
<path d="M94.4454 45.0788C93.9244 43.0225 92.7375 41.1961 91.0695 39.8839C89.4015 38.5718 87.346 37.8475 85.2231 37.824C83.7972 37.8233 82.3904 38.1527 81.1132 38.7864C79.9827 36.4025 78.2017 34.3859 75.975 32.9685C73.7483 31.5511 71.1665 30.7904 68.5263 30.7739C60.8207 30.7739 54.5796 37.1708 54.475 45.0788" stroke="#1D1D1B" stroke-width="3" stroke-linecap="round" stroke-linejoin="round"/>
<path d="M143.316 27.1117H161.211" stroke="#1D1D1B" stroke-width="3" stroke-linecap="round" stroke-linejoin="round"/>
<path d="M108.314 27.1117C109.53 22.9357 113.609 19.8613 118.447 19.8613C120.003 19.8592 121.541 20.1857 122.962 20.8193C125.494 16.0728 130.733 12.8069 136.782 12.8069C145.251 12.8069 152.128 19.2038 152.224 27.1117" stroke="#1D1D1B" stroke-width="3" stroke-linecap="round" stroke-linejoin="round"/>
<path d="M368.947 175.233L393.019 169.498L368.947 163.559V202.759" fill="#FF9F1C"/>
<path d="M368.947 175.233L393.019 169.498L368.947 163.559V202.759" stroke="#1D1D1B" stroke-width="3" stroke-linecap="round" stroke-linejoin="round"/>
<path d="M448.762 210.384C448.7 214.019 447.868 217.6 446.321 220.891C442.603 226.178 437.037 229.881 430.72 231.27C424.404 232.658 417.797 231.632 412.201 228.392C406.605 225.153 402.427 219.936 400.491 213.77C398.555 207.605 399.002 200.938 401.744 195.086C404.923 190.556 409.473 187.166 414.725 185.414C419.977 183.662 425.653 183.641 430.918 185.354C436.182 187.067 440.758 190.424 443.97 194.929C447.182 199.435 448.862 204.852 448.762 210.384Z" fill="#56B99A"/>
<path d="M425.17 192.987L424.8 217.355L424.455 240.343V240.352L424.381 244.985V245.19L424.272 252.388" stroke="#1D1D1B" stroke-width="3.31" stroke-linecap="round" stroke-linejoin="round"/>
<path d="M424.455 231.887L444.072 211.42" stroke="#1D1D1B" stroke-width="3" stroke-linecap="round" stroke-linejoin="round"/>
<path d="M424.8 213.001L411.21 198.914" stroke="#1D1D1B" stroke-width="3" stroke-linecap="round" stroke-linejoin="round"/>
<path d="M450.993 206.543C450.9 211.651 449.293 216.618 446.375 220.813C443.456 225.009 439.359 228.246 434.599 230.115C429.84 231.983 424.632 232.399 419.636 231.311C414.64 230.222 410.079 227.678 406.53 223.999C402.981 220.321 400.603 215.673 399.698 210.644C398.793 205.616 399.401 200.432 401.445 195.748C403.489 191.065 406.877 187.092 411.18 184.333C415.484 181.573 420.51 180.151 425.623 180.245C429.023 180.29 432.379 181.008 435.499 182.357C438.619 183.706 441.441 185.66 443.8 188.105C446.159 190.551 448.01 193.44 449.245 196.604C450.479 199.769 451.074 203.147 450.993 206.543V206.543Z" stroke="#1D1D1B" stroke-width="3" stroke-linecap="round" stroke-linejoin="round"/>
<path d="M322.143 136.8H354.961" stroke="#1D1D1B" stroke-width="3" stroke-linecap="round" stroke-linejoin="round"/>
<path d="M394.701 136.8H427.519" stroke="#1D1D1B" stroke-width="3" stroke-linecap="round" stroke-linejoin="round"/>
<path d="M433.547 136.8H445.345" stroke="#1D1D1B" stroke-width="3" stroke-linecap="round" stroke-linejoin="round"/>
<path d="M338.326 136.8C338.667 133.794 339.722 130.912 341.404 128.396C343.085 125.88 345.343 123.801 347.991 122.333C350.639 120.865 353.599 120.051 356.625 119.957C359.652 119.863 362.657 120.493 365.391 121.794C368.204 116.162 372.838 111.645 378.541 108.975C384.245 106.304 390.685 105.637 396.816 107.08C402.947 108.524 408.41 111.994 412.32 116.928C416.23 121.863 418.358 127.972 418.358 134.265C418.363 135.112 418.323 135.957 418.24 136.8" stroke="#1D1D1B" stroke-width="3" stroke-linecap="round" stroke-linejoin="round"/>
<path d="M64.3248 132.136C62.3781 130.191 59.9024 128.86 57.2052 128.309C54.508 127.758 51.7082 128.01 49.1534 129.035L25.2784 105.181L17.6033 105.298L17.4856 112.967L24.2716 113.085L24.0667 119.542L30.9137 119.721L31.0183 126.488L37.7955 126.597L37.3161 132.78L41.3607 136.821C40.4144 139.173 40.1232 141.737 40.5182 144.24C40.9132 146.744 41.9795 149.094 43.6039 151.04C45.2284 152.987 47.3502 154.458 49.744 155.296C52.1379 156.135 54.7144 156.31 57.1997 155.802C59.6851 155.295 61.9865 154.125 63.8596 152.416C65.7326 150.706 67.1073 148.522 67.8376 146.095C68.5679 143.668 68.6265 141.088 68.0072 138.63C67.388 136.173 66.1139 133.928 64.3205 132.136H64.3248Z" fill="#DADADA"/>
<path d="M58.3191 150.068C60.5793 150.068 62.4116 148.237 62.4116 145.979C62.4116 143.721 60.5793 141.89 58.3191 141.89C56.0589 141.89 54.2266 143.721 54.2266 145.979C54.2266 148.237 56.0589 150.068 58.3191 150.068Z" fill="#DADADA"/>
<path d="M64.3161 132.027C62.3693 130.082 59.8936 128.751 57.1964 128.2C54.4993 127.649 51.6994 127.902 49.1447 128.927L25.2784 105.076L17.6033 105.194L17.4856 112.862L24.2716 112.98L24.0667 119.438L30.9137 119.612L31.0183 126.379L37.7955 126.488L37.3161 132.676L41.3563 136.734C40.4084 139.087 40.116 141.652 40.5103 144.157C40.9046 146.662 41.9709 149.013 43.5957 150.961C45.2205 152.909 47.3432 154.381 49.7383 155.22C52.1333 156.06 54.7111 156.235 57.1978 155.727C59.6845 155.22 61.9871 154.049 63.8609 152.338C65.7348 150.628 67.1098 148.442 67.8399 146.014C68.57 143.585 68.6279 141.004 68.0075 138.545C67.387 136.086 66.1114 133.841 64.3161 132.049V132.027Z" stroke="#1D1D1B" stroke-width="3" stroke-linecap="round" stroke-linejoin="round"/>
<path d="M58.3103 149.959C60.5706 149.959 62.4028 148.129 62.4028 145.87C62.4028 143.612 60.5706 141.781 58.3103 141.781C56.0501 141.781 54.2179 143.612 54.2179 145.87C54.2179 148.129 56.0501 149.959 58.3103 149.959Z" fill="white" stroke="#1D1D1B" stroke-width="3" stroke-linecap="round" stroke-linejoin="round"/>
<path d="M20.5575 200.806L34.1823 214.419C35.903 216.138 38.6929 216.138 40.4137 214.419L70.8127 184.046C72.5335 182.327 72.5335 179.539 70.8127 177.82L57.188 164.207C55.4673 162.488 52.6774 162.488 50.9566 164.207L20.5575 194.58C18.8368 196.299 18.8368 199.087 20.5575 200.806Z" fill="#56B99A"/>
<path d="M20.175 200.373L33.7997 213.986C35.5205 215.706 38.3104 215.706 40.0312 213.986L70.4302 183.613C72.151 181.894 72.151 179.107 70.4302 177.387L56.8055 163.774C55.0848 162.055 52.2949 162.055 50.5741 163.774L20.175 194.147C18.4543 195.867 18.4543 198.654 20.175 200.373Z" stroke="#1D1D1B" stroke-width="3" stroke-miterlimit="10"/>
<path d="M58.4716 179.57C60.7318 179.57 62.5641 177.74 62.5641 175.482C62.5641 173.223 60.7318 171.393 58.4716 171.393C56.2114 171.393 54.3791 173.223 54.3791 175.482C54.3791 177.74 56.2114 179.57 58.4716 179.57Z" fill="white" stroke="#1D1D1B" stroke-width="3" stroke-linecap="round" stroke-linejoin="round"/>
<path d="M58.6416 145.552V175.482" stroke="#1D1D1B" stroke-width="3" stroke-miterlimit="10"/>
<path d="M378.741 253.072C378.741 253.072 360.283 214.821 357.093 208.219C356.728 207.224 356.091 206.35 355.255 205.697C354.419 205.043 353.417 204.637 352.362 204.523C351.307 204.41 350.241 204.593 349.284 205.053C348.328 205.513 347.52 206.231 346.951 207.126L324.636 252.745H326.17L423.518 253.085L401.129 208.232V208.206C400.692 207.226 400.013 206.372 399.157 205.725C398.3 205.077 397.294 204.656 396.231 204.501C396.087 204.501 395.934 204.501 395.795 204.501C395.655 204.501 395.498 204.501 395.359 204.501H351.776L378.741 253.072Z" fill="white"/>
<path d="M420.31 253.694H323.882L324.144 253.163C324.191 253.059 324.244 252.954 324.296 252.845C324.466 252.506 324.64 252.144 324.828 251.761L345.068 210.392C345.387 209.892 345.781 209.444 346.236 209.064C347.252 208.221 348.532 207.758 349.853 207.758H393.437C393.585 207.758 393.729 207.758 393.873 207.758C394.017 207.758 394.178 207.758 394.309 207.758C395.127 207.882 395.914 208.162 396.627 208.581C397.764 209.25 398.665 210.256 399.203 211.459C399.203 211.459 399.203 211.485 399.203 211.49L399.552 212.191L404.664 222.428C405.614 224.327 406.634 226.378 407.693 228.499L409.611 232.344C413.481 240.095 417.456 248.099 419.731 252.628C419.761 252.693 419.796 252.754 419.822 252.815L420.31 253.694Z" fill="#C6C6C6"/>
<path d="M357.053 235.858V253.712H343.294V235.858C343.339 234.065 344.084 232.36 345.369 231.108C346.654 229.856 348.379 229.155 350.174 229.155C351.969 229.155 353.693 229.856 354.978 231.108C356.264 232.36 357.008 234.065 357.053 235.858Z" fill="#9D9D9C"/>
<path d="M378.671 252.824C378.671 252.824 360.213 214.568 357.023 207.971C356.661 206.974 356.027 206.099 355.192 205.443C354.358 204.787 353.357 204.378 352.303 204.261C351.248 204.143 350.181 204.323 349.223 204.779C348.265 205.236 347.454 205.951 346.881 206.843L324.566 252.475H326.1L423.449 252.815L401.06 207.962V207.936C400.624 206.957 399.947 206.104 399.093 205.456C398.239 204.809 397.235 204.387 396.174 204.231C396.026 204.231 395.873 204.209 395.738 204.209C395.603 204.209 395.437 204.209 395.302 204.231H351.719" stroke="black" stroke-width="4" stroke-miterlimit="10"/>
<path d="M351.571 226.909C353.395 226.909 355.144 227.633 356.434 228.922C357.723 230.211 358.448 231.958 358.448 233.781V252.824H344.689V233.781C344.689 232.878 344.867 231.984 345.213 231.15C345.559 230.316 346.066 229.559 346.705 228.92C347.344 228.282 348.102 227.776 348.937 227.431C349.772 227.086 350.667 226.909 351.571 226.909V226.909Z" stroke="black" stroke-width="2" stroke-miterlimit="10"/>
<path d="M254.454 252.824V252.749" stroke="#1D1D1B" stroke-width="2" stroke-miterlimit="10" stroke-dasharray="12 12"/>
<path d="M254.759 280.619C254.828 290.909 254.323 288.801 257.761 292.529C259.004 293.861 263.619 298.055 266.683 297.689C267.142 297.622 267.605 297.582 268.069 297.571H442.499C444.813 297.545 447.095 297.023 449.191 296.041C451.286 295.058 453.146 293.638 454.646 291.876V291.876C457.849 288.139 459.594 283.371 459.557 278.45V184.827C459.557 184.583 459.557 184.339 459.523 184.099C459.228 180.978 457.98 178.023 455.949 175.634C454.077 173.367 451.567 171.713 448.744 170.887C445.258 169.886 440.93 169.45 439.3 169.681C438.934 169.729 438.566 169.751 438.197 169.747H396.357" stroke="#575756" stroke-width="3" stroke-miterlimit="10" stroke-dasharray="12.73 12.73"/>
<path d="M149.156 203.934H114.359C109.525 203.934 105.607 207.849 105.607 212.678C105.607 217.508 109.525 221.423 114.359 221.423H149.156C153.989 221.423 157.907 217.508 157.907 212.678C157.907 207.849 153.989 203.934 149.156 203.934Z" fill="#9D9D9C"/>
<path d="M150.11 202.389H115.313C110.48 202.389 106.562 206.303 106.562 211.133C106.562 215.962 110.48 219.877 115.313 219.877H150.11C154.944 219.877 158.862 215.962 158.862 211.133C158.862 206.303 154.944 202.389 150.11 202.389Z" stroke="#1D1D1B" stroke-width="2" stroke-miterlimit="10"/>
<path d="M298.63 209.021H310.066C313.391 209.021 316.085 212.13 316.085 215.988V277.645H192.46" stroke="black" stroke-width="3.72" stroke-miterlimit="10"/>
<path d="M133.148 263.079C132.659 271.444 129.199 278.08 120.7 278.08H50.9666C47.4064 278.08 43.992 276.667 41.4746 274.152C38.9572 271.637 37.5429 268.225 37.5429 264.668V217.638" stroke="#575756" stroke-width="3" stroke-miterlimit="10" stroke-dasharray="12 12"/>
<path d="M136.887 107.223H119.327C114.997 107.223 111.487 110.731 111.487 115.057V121.567C111.487 125.894 114.997 129.401 119.327 129.401H136.887C141.217 129.401 144.728 125.894 144.728 121.567V115.057C144.728 110.731 141.217 107.223 136.887 107.223Z" fill="white" stroke="#1D1D1B" stroke-width="3" stroke-miterlimit="10"/>
<path d="M151.27 112.61H174.617" stroke="#1D1D1B" stroke-width="3" stroke-miterlimit="10"/>
<path d="M178.026 112.61H193.624" stroke="#1D1D1B" stroke-width="3" stroke-miterlimit="10"/>
<path d="M156.482 138.041H179.83" stroke="#1D1D1B" stroke-width="3" stroke-miterlimit="10"/>
<path d="M151.27 124.681H165.809" stroke="#1D1D1B" stroke-width="3" stroke-miterlimit="10"/>
<path d="M169.156 124.681H183.064" stroke="#1D1D1B" stroke-width="3" stroke-miterlimit="10"/>
<path d="M111.487 138.041H151.27" stroke="#1D1D1B" stroke-width="3" stroke-miterlimit="10"/>
</svg>
